<?xml version="1.0" encoding="UTF-8"?>
<svg id="Layer_1" data-name="Layer 1" xmlns="http://www.w3.org/2000/svg" viewBox="0 0 723.49 1069">
  <defs>
    <style>
      .cls-1 {
        fill: #9bd2f3;
      }

      .cls-1, .cls-2, .cls-3, .cls-4, .cls-5, .cls-6 {
        stroke-width: 0px;
      }

      .cls-2 {
        fill: #03694b;
      }

      .cls-3 {
        fill: #deebe4;
      }

      .cls-4 {
        fill: #f9d1a0;
      }

      .cls-5 {
        fill: #9bccb7;
      }

      .cls-6 {
        fill: #fff;
      }
    </style>
  </defs>
  <rect class="cls-6" width="723.49" height="1069"/>
  <g>
    <g>
      <path class="cls-2" d="M635.11,969.01h1.43c1.13,0,1.94.72,1.94,2.05,0,1.41-.74,2.25-2.01,2.25h-1.36v-4.31h0ZM635.71,972.83h.74c.94,0,1.4-.66,1.4-1.75,0-1.01-.54-1.58-1.4-1.58h-.74v3.33h0Z"/>
      <path class="cls-2" d="M639.61,971.84c0,.59.25,1.06.79,1.06.49,0,.64-.33.7-.49h.58c-.11.42-.44.97-1.29.97-1,0-1.36-.76-1.36-1.66,0-.78.39-1.64,1.39-1.64s1.31.78,1.31,1.52v.25h-2.1ZM641.14,971.43c-.02-.51-.22-.9-.75-.9-.6,0-.74.53-.77.9h1.52Z"/>
      <path class="cls-2" d="M642.64,970.14c.41,1.3.68,2.17.78,2.63h0c.07-.4.56-1.85.81-2.63h.58l-1.09,3.19h-.63l-1.06-3.19h.62Z"/>
      <path class="cls-2" d="M645.67,971.84c0,.59.25,1.06.79,1.06.49,0,.64-.33.7-.49h.58c-.11.42-.44.97-1.29.97-1,0-1.36-.76-1.36-1.66,0-.78.39-1.64,1.39-1.64s1.31.78,1.31,1.52c0,.02,0,.22,0,.25h-2.1ZM647.2,971.43c-.02-.51-.22-.9-.75-.9-.6,0-.74.53-.77.9h1.52Z"/>
      <path class="cls-2" d="M648.46,973.32v-4.55h.58v4.55h-.58Z"/>
      <path class="cls-2" d="M652.56,971.68c0,.93-.41,1.7-1.44,1.7s-1.4-.81-1.4-1.68.45-1.62,1.44-1.62c.93,0,1.4.7,1.4,1.6h0ZM650.32,971.68c0,.72.29,1.21.84,1.21s.81-.48.81-1.22c0-.68-.28-1.13-.83-1.13s-.82.46-.82,1.13h0Z"/>
      <path class="cls-2" d="M653.82,972.95v1.62h-.58v-3.5c0-.44,0-.74-.01-.94h.57c.01.11.02.32.02.49.15-.3.45-.56.98-.56.68,0,1.19.54,1.19,1.6s-.58,1.69-1.32,1.69c-.45,0-.71-.18-.85-.41h0ZM655.39,971.7c0-.75-.3-1.13-.79-1.13-.63,0-.81.42-.81,1.17,0,.68.14,1.14.78,1.14.52,0,.82-.43.82-1.19h0Z"/>
      <path class="cls-2" d="M657.25,972.95v1.62h-.58v-3.5c0-.44,0-.74-.01-.94h.57c.01.11.02.32.02.49.15-.3.45-.56.98-.56.68,0,1.19.54,1.19,1.6s-.58,1.69-1.32,1.69c-.45,0-.71-.18-.85-.41h0ZM658.82,971.7c0-.75-.3-1.13-.79-1.13-.63,0-.81.42-.81,1.17,0,.68.14,1.14.78,1.14.52,0,.82-.43.82-1.19h0Z"/>
      <path class="cls-2" d="M660.48,971.84c0,.59.25,1.06.79,1.06.49,0,.64-.33.7-.49h.58c-.11.42-.44.97-1.29.97-1,0-1.36-.76-1.36-1.66,0-.78.39-1.64,1.39-1.64s1.31.78,1.31,1.52v.25h-2.1ZM662.01,971.43c-.02-.51-.22-.9-.75-.9-.6,0-.74.53-.77.9h1.52Z"/>
      <path class="cls-2" d="M665.37,972.95v1.62h-.58v-3.5c0-.44,0-.74-.01-.94h.57c.01.11.02.32.02.49.15-.3.45-.56.98-.56.68,0,1.19.54,1.19,1.6s-.58,1.69-1.32,1.69c-.45,0-.71-.18-.85-.41h0ZM666.94,971.7c0-.75-.3-1.13-.79-1.13-.63,0-.81.42-.81,1.17,0,.68.14,1.14.78,1.14.52,0,.82-.43.82-1.19h0Z"/>
      <path class="cls-2" d="M670.49,972.59c0,.22.02.55.05.73h-.52c-.02-.11-.05-.28-.05-.47-.13.31-.44.53-.95.53-.78,0-1.02-.52-1.02-.97,0-.49.33-1.02,1.46-1.02h.47v-.29c0-.29-.09-.59-.59-.59-.44,0-.59.21-.64.53h-.57c.05-.53.35-.98,1.22-.98.68,0,1.15.26,1.15,1v1.51h0ZM669.94,971.8h-.48c-.73,0-.87.3-.87.58,0,.29.18.53.56.53.6,0,.79-.4.79-1.04v-.06h0Z"/>
      <path class="cls-2" d="M671.38,971.22c0-.51,0-.91-.01-1.08h.57c.01.15.02.35.02.63.14-.37.48-.68,1.02-.68v.6c-.7.02-1.01.4-1.01,1.1v1.54h-.58v-2.1h0Z"/>
      <path class="cls-2" d="M673.66,971.06v-.88h.57v.88h-.57ZM673.66,973.32v-.89h.57v.89h-.57Z"/>
      <path class="cls-2" d="M635.11,975.49h.6v3.81h2.05l-.08.51h-2.56v-4.31h0Z"/>
      <path class="cls-2" d="M637.65,976.82l-.05-1.02v-.57h.55v.58l-.05,1.01h-.44Z"/>
      <path class="cls-2" d="M641.37,977.8h-1.93v1.5h2.12l-.08.51h-2.63v-4.31h2.61v.51h-2.01v1.29h1.93v.51h0Z"/>
      <path class="cls-2" d="M644.67,978.77c-.12.63-.52,1.09-1.3,1.09-.91,0-1.36-.6-1.36-1.66,0-.94.48-1.65,1.4-1.65s1.22.62,1.26,1.13h-.59c-.06-.35-.24-.66-.69-.66-.55,0-.79.49-.79,1.17,0,.8.28,1.2.78,1.2.43,0,.6-.26.7-.63h.59Z"/>
      <path class="cls-2" d="M647.98,978.16c0,.93-.41,1.7-1.44,1.7s-1.4-.81-1.4-1.68.45-1.62,1.44-1.62c.93,0,1.4.7,1.4,1.6h0ZM645.73,978.17c0,.72.29,1.21.84,1.21s.81-.48.81-1.22c0-.68-.28-1.13-.83-1.13s-.82.46-.82,1.13h0Z"/>
      <path class="cls-2" d="M648.66,979.8v-4.55h.58v4.55h-.58Z"/>
      <path class="cls-2" d="M650.51,978.33c0,.59.25,1.06.79,1.06.49,0,.64-.33.7-.49h.58c-.11.42-.44.97-1.29.97-1,0-1.36-.76-1.36-1.66,0-.78.39-1.64,1.39-1.64s1.31.78,1.31,1.52c0,.02,0,.22,0,.25h-2.1ZM652.04,977.92c-.02-.51-.22-.9-.75-.9-.6,0-.74.53-.77.9h1.52Z"/>
      <path class="cls-2" d="M657.35,975.25v3.71c0,.32,0,.64.01.84h-.57c-.01-.09-.02-.28-.02-.45-.16.35-.42.51-.94.51-.82,0-1.23-.69-1.23-1.64s.48-1.66,1.35-1.66c.51,0,.74.2.82.36v-1.67h.58ZM655.2,978.19c0,.74.31,1.18.8,1.18.66,0,.79-.49.79-1.21,0-.85-.23-1.1-.76-1.1s-.83.41-.83,1.14h0Z"/>
      <path class="cls-2" d="M658.64,978.33c0,.59.25,1.06.79,1.06.49,0,.64-.33.7-.49h.58c-.11.42-.44.97-1.29.97-1,0-1.36-.76-1.36-1.66,0-.78.39-1.64,1.39-1.64s1.31.78,1.31,1.52c0,.02,0,.22,0,.25h-2.1ZM660.17,977.92c-.02-.51-.22-.9-.75-.9-.6,0-.74.53-.77.9h1.52Z"/>
      <path class="cls-2" d="M662.94,979.8v-4.55h.58v4.55h-.58Z"/>
      <path class="cls-2" d="M666.68,979.07c0,.22.02.55.05.73h-.52c-.02-.11-.05-.28-.05-.47-.13.31-.44.53-.95.53-.78,0-1.02-.52-1.02-.97,0-.49.33-1.02,1.46-1.02h.47v-.29c0-.29-.09-.59-.59-.59-.44,0-.59.21-.64.53h-.57c.05-.53.35-.98,1.22-.98.68,0,1.15.26,1.15,1v1.51h0ZM666.13,978.29h-.48c-.73,0-.87.3-.87.58,0,.29.18.53.56.53.6,0,.79-.4.79-1.04v-.06h0Z"/>
      <path class="cls-2" d="M672.39,979.8h-.46c-.02-.13-.04-.31-.05-.6-.22.48-.65.66-1.25.66-1.13,0-1.68-.96-1.68-2.2s.66-2.24,1.87-2.24c.94,0,1.45.51,1.58,1.26h-.59c-.12-.43-.39-.75-1.02-.75-.86,0-1.22.78-1.22,1.74,0,.9.35,1.7,1.17,1.7.87,0,1.06-.6,1.06-1.35v-.02h-1.08v-.52h1.67v2.34h.01Z"/>
      <path class="cls-2" d="M673.2,979.81v-.89h.57v.89h-.57Z"/>
      <path class="cls-2" d="M675.07,977.88v1.93h-.59v-4.31h1.57c.77,0,1.32.39,1.32,1.12,0,.62-.36.89-.7,1.01.45.15.63.5.63,1.08v.09c0,.4.01.77.06,1.02h-.59c-.06-.17-.07-.55-.07-1.02v-.09c0-.59-.21-.82-.9-.82h-.72ZM675.07,977.39h.77c.53,0,.91-.15.91-.73,0-.45-.3-.67-.79-.67h-.9v1.4h0Z"/>
      <path class="cls-2" d="M678.03,979.81v-.89h.57v.89h-.57Z"/>
      <path class="cls-2" d="M682.36,978.53c-.13.7-.58,1.33-1.62,1.33-1.28,0-1.76-.97-1.76-2.24,0-1.15.56-2.19,1.79-2.19,1.02,0,1.48.63,1.56,1.35h-.6c-.1-.48-.35-.85-.98-.85-.82,0-1.15.81-1.15,1.69s.26,1.74,1.16,1.74c.63,0,.88-.39,1-.84h.6Z"/>
      <path class="cls-2" d="M683,979.81v-.89h.57v.89h-.57Z"/>
      <path class="cls-2" d="M635.11,981.98h2.57v.51h-1.98v1.36h1.86v.5h-1.86v1.93h-.59v-4.31h0Z"/>
      <path class="cls-2" d="M640.95,984.65c0,.93-.41,1.7-1.44,1.7s-1.4-.81-1.4-1.68.45-1.62,1.44-1.62c.93,0,1.4.7,1.4,1.6h0ZM638.7,984.66c0,.72.29,1.21.84,1.21s.81-.48.81-1.22c0-.68-.28-1.13-.83-1.13s-.82.46-.82,1.13h0Z"/>
      <path class="cls-2" d="M641.63,984.19c0-.51,0-.91-.01-1.08h.57c.01.15.02.35.02.63.14-.37.48-.68,1.02-.68v.6c-.7.02-1.01.4-1.01,1.1v1.54h-.58v-2.1h0Z"/>
      <path class="cls-2" d="M643.71,984.1c0-.58,0-.85-.01-.99h.57c.01.09.02.33.02.44.15-.27.43-.5.89-.5.43,0,.69.2.81.54.14-.28.47-.54.94-.54s.97.25.97,1.09v2.16h-.58v-2.06c0-.37-.12-.69-.56-.69-.48,0-.67.39-.67.89v1.86h-.57v-2.09c0-.37-.16-.66-.55-.66-.43,0-.69.32-.69.94v1.81h-.58v-2.19h0Z"/>
      <path class="cls-2" d="M651.03,985.56c0,.22.02.55.05.73h-.52c-.02-.11-.05-.28-.05-.47-.13.31-.44.53-.95.53-.78,0-1.02-.52-1.02-.97,0-.49.33-1.02,1.46-1.02h.47v-.29c0-.29-.09-.59-.59-.59-.44,0-.59.21-.64.53h-.57c.05-.53.35-.98,1.22-.98.68,0,1.15.26,1.15,1v1.51h0ZM650.48,984.77h-.48c-.73,0-.87.3-.87.58,0,.29.18.53.56.53.6,0,.79-.4.79-1.04v-.06h0ZM650.92,981.62l-.85.94h-.55l.69-.94h.7Z"/>
      <path class="cls-2" d="M651.45,983.1h.5v-.91h.58v.91h.63v.47h-.63v1.92c0,.26.06.36.33.36.09,0,.16,0,.24-.02v.43c-.13.05-.32.06-.44.06-.49,0-.71-.19-.71-.73v-2.02h-.5v-.47h0Z"/>
      <path class="cls-2" d="M653.7,981.74h.58v.7h-.58v-.7ZM653.7,983.1h.58v3.19h-.58v-3.19Z"/>
      <path class="cls-2" d="M657.8,984.65c0,.93-.41,1.7-1.44,1.7s-1.4-.81-1.4-1.68.45-1.62,1.44-1.62c.93,0,1.4.7,1.4,1.6h0ZM655.55,984.66c0,.72.29,1.21.84,1.21s.81-.48.81-1.22c0-.68-.28-1.13-.83-1.13s-.82.46-.82,1.13h0Z"/>
      <path class="cls-2" d="M658.49,984.1c0-.66,0-.86-.01-.99h.57c.01.06.02.35.02.48.13-.28.42-.55.93-.55.6,0,1.01.35,1.01,1.18v2.06h-.59v-1.97c0-.44-.14-.78-.6-.78-.53,0-.75.39-.75,1.03v1.71h-.58v-2.19h0Z"/>
      <path class="cls-2" d="M665.69,985.56c0,.22.02.55.05.73h-.52c-.02-.11-.05-.28-.05-.47-.13.31-.44.53-.95.53-.78,0-1.02-.52-1.02-.97,0-.49.33-1.02,1.46-1.02h.47v-.29c0-.29-.09-.59-.59-.59-.44,0-.59.21-.64.53h-.57c.05-.53.35-.98,1.22-.98.68,0,1.15.26,1.15,1v1.51h0ZM665.13,984.77h-.48c-.73,0-.87.3-.87.58,0,.29.18.53.56.53.6,0,.79-.4.79-1.04v-.06h0Z"/>
      <path class="cls-2" d="M669.01,985.38c0,.41,0,.75.01.91h-.56c-.02-.09-.02-.27-.03-.48-.16.34-.47.54-.92.54-.52,0-.98-.27-.98-1.1v-2.14h.58v2.03c0,.4.13.71.59.71s.72-.29.72-.96v-1.78h.59v2.28h0Z"/>
      <path class="cls-2" d="M671,983.1h.5v-.91h.58v.91h.63v.47h-.63v1.92c0,.26.06.36.33.36.09,0,.16,0,.24-.02v.43c-.13.05-.32.06-.44.06-.49,0-.71-.19-.71-.73v-2.02h-.5v-.47h0Z"/>
      <path class="cls-2" d="M673.25,981.74h.58v.7h-.58v-.7ZM673.25,983.1h.58v3.19h-.58v-3.19Z"/>
      <path class="cls-2" d="M674.72,984.19c0-.51,0-.91-.01-1.08h.57c.01.15.02.35.02.63.14-.37.48-.68,1.02-.68v.6c-.7.02-1.01.4-1.01,1.1v1.54h-.58v-2.1h0Z"/>
    </g>
    <g>
      <path class="cls-2" d="M630.44,944.09h1.43c1.13,0,1.94.72,1.94,2.05,0,1.41-.74,2.25-2.01,2.25h-1.36v-4.31h0ZM631.05,947.92h.74c.94,0,1.4-.66,1.4-1.75,0-1.01-.54-1.58-1.4-1.58h-.74v3.33h0Z"/>
      <path class="cls-2" d="M634.95,946.93c0,.59.25,1.06.79,1.06.49,0,.64-.33.7-.49h.58c-.11.42-.44.97-1.29.97-1,0-1.36-.76-1.36-1.66,0-.78.39-1.64,1.39-1.64s1.31.78,1.31,1.52v.25h-2.1ZM636.48,946.51c-.02-.51-.22-.9-.75-.9-.6,0-.74.53-.77.9h1.52Z"/>
      <path class="cls-2" d="M637.98,945.22c.41,1.3.68,2.17.78,2.63h0c.07-.4.56-1.85.81-2.63h.58l-1.09,3.19h-.63l-1.06-3.19h.62Z"/>
      <path class="cls-2" d="M641.01,946.93c0,.59.25,1.06.79,1.06.49,0,.64-.33.7-.49h.58c-.11.42-.44.97-1.29.97-1,0-1.36-.76-1.36-1.66,0-.78.39-1.64,1.39-1.64s1.31.78,1.31,1.52c0,.02,0,.22,0,.25h-2.1ZM642.53,946.51c-.02-.51-.22-.9-.75-.9-.6,0-.74.53-.77.9h1.52Z"/>
      <path class="cls-2" d="M643.79,948.41v-4.55h.58v4.55h-.58Z"/>
      <path class="cls-2" d="M647.9,946.76c0,.93-.41,1.7-1.44,1.7s-1.4-.81-1.4-1.68.45-1.62,1.44-1.62c.93,0,1.4.7,1.4,1.6h0ZM645.65,946.77c0,.72.29,1.21.84,1.21s.81-.48.81-1.22c0-.68-.28-1.13-.83-1.13s-.82.46-.82,1.13h0Z"/>
      <path class="cls-2" d="M649.16,948.04v1.62h-.58v-3.5c0-.44,0-.74-.01-.94h.57c.01.11.02.32.02.49.15-.3.45-.56.98-.56.68,0,1.19.54,1.19,1.6s-.58,1.69-1.32,1.69c-.45,0-.71-.18-.85-.41h0ZM650.73,946.78c0-.75-.3-1.13-.79-1.13-.63,0-.81.42-.81,1.17,0,.68.14,1.14.78,1.14.52,0,.82-.43.82-1.19h0Z"/>
      <path class="cls-2" d="M652.4,946.93c0,.59.25,1.06.79,1.06.49,0,.64-.33.7-.49h.58c-.11.42-.44.97-1.29.97-1,0-1.36-.76-1.36-1.66,0-.78.39-1.64,1.39-1.64s1.31.78,1.31,1.52v.25h-2.1ZM653.93,946.51c-.02-.51-.22-.9-.75-.9-.6,0-.74.53-.77.9h1.52Z"/>
      <path class="cls-2" d="M657.73,943.85v3.71c0,.32,0,.64.01.84h-.57c-.01-.09-.02-.28-.02-.45-.16.35-.42.51-.94.51-.82,0-1.23-.69-1.23-1.64s.48-1.66,1.35-1.66c.51,0,.74.2.82.36v-1.67h.58ZM655.58,946.8c0,.74.31,1.18.8,1.18.66,0,.79-.49.79-1.21,0-.85-.23-1.1-.76-1.1s-.83.41-.83,1.14h0Z"/>
      <path class="cls-2" d="M660.21,943.85h.58v1.79c.14-.25.42-.49.94-.49.78,0,1.22.65,1.22,1.55,0,.98-.42,1.75-1.32,1.75-.48,0-.73-.21-.85-.44,0,.13-.01.26-.02.39h-.56c0-.18.01-.53.01-.91v-3.64h0ZM662.36,946.74c0-.64-.25-1.08-.79-1.08-.6,0-.82.39-.82,1.12s.18,1.19.81,1.19c.55,0,.8-.51.8-1.23h0Z"/>
      <path class="cls-2" d="M663.91,945.22c.47,1.51.72,2.27.79,2.65h0c.09-.36.38-1.36.78-2.65h.59l-1.11,3.32c-.33.98-.62,1.16-1.17,1.16-.06,0-.2-.01-.28-.02v-.49c.07.01.2.02.28.02.36,0,.48-.28.62-.7l-1.13-3.29h.63Z"/>
      <path class="cls-2" d="M666.7,946.14v-.88h.57v.88h-.57ZM666.7,948.41v-.89h.57v.89h-.57Z"/>
      <path class="cls-2" d="M631.04,952.96v1.93h-.59v-4.31h1.57c.77,0,1.32.38,1.32,1.12,0,.62-.36.9-.7,1.01.45.15.63.5.63,1.08v.09c0,.4.01.77.06,1.02h-.59c-.06-.17-.07-.55-.07-1.02v-.09c0-.59-.21-.82-.9-.82h-.72ZM631.04,952.47h.77c.53,0,.91-.15.91-.73,0-.45-.3-.67-.79-.67h-.9v1.4h0Z"/>
      <path class="cls-2" d="M637.34,953.62c-.13.7-.58,1.33-1.62,1.33-1.28,0-1.76-.97-1.76-2.24,0-1.15.56-2.19,1.79-2.19,1.02,0,1.48.63,1.56,1.35h-.6c-.1-.48-.35-.85-.98-.85-.82,0-1.15.81-1.15,1.69s.26,1.74,1.16,1.74c.63,0,.88-.39,1-.84h.6Z"/>
      <path class="cls-2" d="M641.6,953.1c0-.78.01-1.62.03-2.08h-.02c-.2.8-.82,2.64-1.25,3.87h-.55c-.32-1.04-.96-3.05-1.16-3.88h-.02c.03.5.05,1.45.05,2.2v1.68h-.56v-4.31h.9c.42,1.22.97,2.94,1.11,3.54h.01c.09-.44.74-2.31,1.18-3.54h.87v4.31h-.59v-1.79h0Z"/>
      <path class="cls-2" d="M643.26,950.58h1.47c.81,0,1.42.41,1.42,1.21,0,.86-.61,1.28-1.49,1.28h-.8v1.82h-.6v-4.31ZM643.86,952.58h.77c.54,0,.9-.19.9-.78,0-.51-.36-.73-.89-.73h-.78v1.51h0Z"/>
      <path class="cls-2" d="M649.31,951.09h-1.24v-.51h3.09v.51h-1.25v3.8h-.6v-3.8h0Z"/>
      <path class="cls-2" d="M651.16,952.79c0-.51,0-.91-.01-1.08h.57c.01.15.02.35.02.63.14-.37.48-.68,1.02-.68v.6c-.7.02-1.01.4-1.01,1.1v1.54h-.58v-2.1h0Z"/>
      <path class="cls-2" d="M655.47,954.16c0,.22.02.55.05.73h-.52c-.02-.11-.05-.28-.05-.47-.13.31-.44.53-.95.53-.78,0-1.02-.52-1.02-.97,0-.5.33-1.02,1.46-1.02h.47v-.29c0-.29-.09-.59-.59-.59-.44,0-.59.21-.64.53h-.57c.05-.53.35-.98,1.22-.98.68,0,1.15.26,1.15,1v1.51h0ZM654.92,953.37h-.48c-.73,0-.87.3-.87.58,0,.29.18.53.56.53.6,0,.79-.4.79-1.04v-.06h0Z"/>
      <path class="cls-2" d="M656.36,950.34h.58v.7h-.58v-.7ZM656.36,951.71h.58v3.19h-.58v-3.19Z"/>
      <path class="cls-2" d="M657.83,952.7c0-.66,0-.86-.01-.99h.57c.01.06.02.35.02.48.13-.28.42-.55.93-.55.6,0,1.01.35,1.01,1.18v2.06h-.59v-1.97c0-.44-.14-.78-.6-.78-.53,0-.75.39-.75,1.03v1.71h-.58v-2.19h0Z"/>
      <path class="cls-2" d="M661.24,950.34h.58v.7h-.58v-.7ZM661.24,951.71h.58v3.19h-.58v-3.19Z"/>
      <path class="cls-2" d="M662.71,952.7c0-.66,0-.86-.01-.99h.57c.01.06.02.35.02.48.13-.28.42-.55.93-.55.6,0,1.01.35,1.01,1.18v2.06h-.59v-1.97c0-.44-.14-.78-.6-.78-.53,0-.75.39-.75,1.03v1.71h-.58v-2.19h0Z"/>
      <path class="cls-2" d="M668.63,954.63c0,.99-.4,1.56-1.39,1.56s-1.24-.51-1.28-.97h.58c.07.33.34.5.73.5.66,0,.8-.42.8-1.09v-.25c-.16.35-.45.5-.92.5-.75,0-1.24-.62-1.24-1.6s.58-1.64,1.31-1.64c.5,0,.75.2.83.43,0-.13.02-.3.03-.37h.57c0,.15-.01.49-.01.93v2h-.01ZM666.51,953.27c0,.71.3,1.12.78,1.12.58,0,.79-.36.79-1.13s-.16-1.12-.76-1.12c-.5,0-.81.41-.81,1.13Z"/>
      <path class="cls-2" d="M671.66,953.63l-.4,1.26h-.6c.25-.76,1.1-3.45,1.39-4.31h.76l1.45,4.31h-.64l-.41-1.26h-1.55ZM673.07,953.12c-.35-1.06-.57-1.7-.66-2.06h-.01c-.11.5-.33,1.17-.62,2.06h1.29Z"/>
      <path class="cls-2" d="M677.28,953.86c-.12.63-.52,1.09-1.3,1.09-.91,0-1.36-.59-1.36-1.66,0-.94.48-1.65,1.4-1.65s1.22.62,1.26,1.13h-.59c-.06-.35-.24-.66-.69-.66-.55,0-.79.49-.79,1.17,0,.8.28,1.2.78,1.2.43,0,.6-.26.7-.63h.59Z"/>
      <path class="cls-2" d="M680.22,954.16c0,.22.02.55.05.73h-.52c-.02-.11-.05-.28-.05-.47-.13.31-.44.53-.95.53-.78,0-1.02-.52-1.02-.97,0-.5.33-1.02,1.46-1.02h.47v-.29c0-.29-.09-.59-.59-.59-.44,0-.59.21-.64.53h-.57c.05-.53.35-.98,1.22-.98.68,0,1.15.26,1.15,1v1.51h0ZM679.67,953.37h-.48c-.73,0-.87.3-.87.58,0,.29.18.53.56.53.6,0,.79-.4.79-1.04v-.06h0Z"/>
      <path class="cls-2" d="M683.64,950.34v3.71c0,.32,0,.64.01.84h-.57c-.01-.09-.02-.28-.02-.45-.16.35-.42.51-.94.51-.82,0-1.23-.69-1.23-1.64s.48-1.66,1.35-1.66c.51,0,.74.2.82.36v-1.67h.58ZM681.49,953.28c0,.74.31,1.18.8,1.18.66,0,.79-.49.79-1.21,0-.85-.23-1.1-.76-1.1s-.83.41-.83,1.14h0Z"/>
      <path class="cls-2" d="M684.93,953.41c0,.59.25,1.06.79,1.06.49,0,.64-.33.7-.49h.58c-.11.42-.44.97-1.29.97-1,0-1.36-.76-1.36-1.66,0-.78.39-1.64,1.39-1.64s1.31.78,1.31,1.52v.25h-2.1ZM686.46,953c-.02-.51-.22-.9-.75-.9-.6,0-.74.53-.77.9h1.52Z"/>
      <path class="cls-2" d="M687.7,952.7c0-.58,0-.85-.01-.99h.57c.01.09.02.33.02.44.15-.27.43-.5.89-.5.43,0,.69.2.81.54.14-.28.47-.54.94-.54s.97.25.97,1.09v2.16h-.58v-2.06c0-.37-.12-.69-.56-.69-.48,0-.67.39-.67.89v1.86h-.57v-2.09c0-.37-.16-.66-.55-.66-.43,0-.69.32-.69.94v1.81h-.58v-2.19h0Z"/>
      <path class="cls-2" d="M692.95,951.71c.47,1.51.72,2.27.79,2.65h0c.09-.36.38-1.36.78-2.65h.59l-1.11,3.32c-.33.98-.62,1.16-1.17,1.16-.06,0-.2-.01-.28-.02v-.49c.07.01.2.02.28.02.36,0,.48-.28.62-.7l-1.13-3.29h.63Z"/>
      <path class="cls-2" d="M630.44,957.07h2.57v.51h-1.98v1.36h1.86v.51h-1.86v1.93h-.59v-4.31h0Z"/>
      <path class="cls-2" d="M633.64,956.82h.58v.7h-.58v-.7ZM633.64,958.19h.58v3.19h-.58v-3.19Z"/>
      <path class="cls-2" d="M635.11,959.27c0-.51,0-.91-.01-1.08h.57c.01.15.02.35.02.63.14-.37.48-.68,1.02-.68v.6c-.7.02-1.01.4-1.01,1.1v1.54h-.58v-2.1h0Z"/>
      <path class="cls-2" d="M637.57,959.9c0,.59.25,1.06.79,1.06.49,0,.64-.33.7-.49h.58c-.11.42-.44.97-1.29.97-1,0-1.36-.76-1.36-1.66,0-.78.39-1.64,1.39-1.64s1.31.78,1.31,1.52v.25h-2.1ZM639.1,959.49c-.02-.51-.22-.9-.75-.9-.6,0-.74.53-.77.9h1.52Z"/>
      <path class="cls-2" d="M642.63,960.65c0,.22.02.55.05.73h-.52c-.02-.11-.05-.28-.05-.47-.13.31-.44.53-.95.53-.78,0-1.02-.52-1.02-.97,0-.5.33-1.02,1.46-1.02h.47v-.29c0-.29-.09-.59-.59-.59-.44,0-.59.21-.64.53h-.57c.05-.53.35-.98,1.22-.98.68,0,1.15.26,1.15,1v1.51h0ZM642.07,959.85h-.48c-.73,0-.87.3-.87.58,0,.29.18.53.56.53.6,0,.79-.4.79-1.04v-.06h0Z"/>
      <path class="cls-2" d="M643.51,959.27c0-.51,0-.91-.01-1.08h.57c.01.15.02.35.02.63.14-.37.48-.68,1.02-.68v.6c-.7.02-1.01.4-1.01,1.1v1.54h-.58v-2.1h0Z"/>
      <path class="cls-2" d="M645.59,959.18c0-.58,0-.85-.01-.99h.57c.01.09.02.33.02.44.15-.27.43-.5.89-.5.43,0,.69.2.81.54.14-.28.47-.54.94-.54s.97.25.97,1.09v2.16h-.58v-2.06c0-.37-.12-.69-.56-.69-.48,0-.67.39-.67.89v1.86h-.57v-2.09c0-.37-.16-.66-.55-.66-.43,0-.69.32-.69.94v1.81h-.58v-2.19h0Z"/>
      <path class="cls-2" d="M650.94,960.44c.06.35.31.54.68.54.41,0,.58-.21.58-.47s-.2-.41-.73-.55c-.79-.22-.99-.5-.99-.93s.28-.9,1.09-.9,1.09.43,1.13.93h-.57c-.05-.24-.17-.48-.59-.48-.33,0-.49.16-.49.41,0,.22.12.35.64.48.82.22,1.08.5,1.08,1.01,0,.6-.48.97-1.18.97s-1.17-.32-1.24-.99h.58Z"/>
      <path class="cls-2" d="M655.83,957.58h-1.24v-.51h3.09v.51h-1.25v3.8h-.6v-3.8h0Z"/>
      <path class="cls-2" d="M657.68,959.27c0-.51,0-.91-.01-1.08h.57c.01.15.02.35.02.63.14-.37.48-.68,1.02-.68v.6c-.7.02-1.01.4-1.01,1.1v1.54h-.58v-2.1h0Z"/>
      <path class="cls-2" d="M661.99,960.65c0,.22.02.55.05.73h-.52c-.02-.11-.05-.28-.05-.47-.13.31-.44.53-.95.53-.78,0-1.02-.52-1.02-.97,0-.5.33-1.02,1.46-1.02h.47v-.29c0-.29-.09-.59-.59-.59-.44,0-.59.21-.64.53h-.57c.05-.53.35-.98,1.22-.98.68,0,1.15.26,1.15,1v1.51h0ZM661.44,959.85h-.48c-.73,0-.87.3-.87.58,0,.29.18.53.56.53.6,0,.79-.4.79-1.04v-.06h0Z"/>
      <path class="cls-2" d="M662.88,956.82h.58v.7h-.58v-.7ZM662.88,958.19h.58v3.19h-.58v-3.19Z"/>
      <path class="cls-2" d="M664.35,959.19c0-.66,0-.86-.01-.99h.57c.01.06.02.35.02.48.13-.28.42-.55.93-.55.6,0,1.01.35,1.01,1.18v2.06h-.59v-1.97c0-.44-.14-.78-.6-.78-.53,0-.75.39-.75,1.03v1.71h-.58v-2.19h0Z"/>
      <path class="cls-2" d="M667.76,956.82h.58v.7h-.58v-.7ZM667.76,958.19h.58v3.19h-.58v-3.19Z"/>
      <path class="cls-2" d="M669.23,959.19c0-.66,0-.86-.01-.99h.57c.01.06.02.35.02.48.13-.28.42-.55.93-.55.6,0,1.01.35,1.01,1.18v2.06h-.59v-1.97c0-.44-.14-.78-.6-.78-.53,0-.75.39-.75,1.03v1.71h-.58v-2.19h0Z"/>
      <path class="cls-2" d="M675.15,961.12c0,.99-.4,1.56-1.39,1.56s-1.24-.51-1.28-.97h.58c.07.33.34.5.73.5.66,0,.8-.42.8-1.09v-.25c-.16.35-.45.5-.92.5-.75,0-1.24-.62-1.24-1.6s.58-1.64,1.31-1.64c.5,0,.75.2.83.43,0-.13.02-.3.03-.37h.57c0,.15-.01.49-.01.93v2h-.01ZM673.03,959.76c0,.71.3,1.12.78,1.12.58,0,.79-.36.79-1.13s-.16-1.12-.76-1.12c-.5,0-.81.41-.81,1.13Z"/>
    </g>
  </g>
  <g>
    <path class="cls-2" d="M654.26,605.43c-7.54,133.91-39.43,408.68-39.43,408.68H108.66s-31.88-274.77-39.43-408.68c-7.53-133.91,24.93-183.76,97.97-207.54,57.02-18.55,97.08-23.69,114.4-34.69.59-.37,1.14-.75,1.68-1.14,3.9-2.82,6.39-6.04,7.4-9.95,1.96-7.61,2.01-18.74,1.31-29.68-1.17-18.34-5.35-36.36-12.05-53.48-8.98-22.96-22.28-65.63-19.01-110.78.62-8.66,2.35-17.25,5.41-25.39,3.32-8.79,8.2-16.95,14.42-23.99,5.75-6.52,12.57-12.04,20.03-16.49,7.06-4.23,14.66-7.52,22.53-9.9,22.23-6.76,49.08-7.06,71.55-1.47,7.92,1.97,15.64,4.83,22.9,8.6,7.69,4,14.85,9.05,21.05,15.12,6.63,6.5,12.08,14.15,16,22.57,4.53,9.72,6.99,20.29,7.76,30.96,3.27,45.14-10.03,87.82-19.01,110.78-6.7,17.12-10.89,35.14-12.05,53.48-.7,10.94-.64,22.08,1.31,29.68,1.02,3.99,3.61,7.27,7.64,10.12.54.39,1.1.77,1.7,1.14,17.45,10.9,57.4,16.07,114.14,34.53,73.04,23.77,105.5,73.62,97.97,207.54h0Z"/>
    <path class="cls-5" d="M496.18,414.19c-19.51-24.58-53.71-34.97-83.31-40.43-37.64-6.93-76.77-6.26-114.06,2.46-25.85,6.04-54.45,16.46-71.51,37.96-33.68,42.43-39.04,66.48-37.49,196.32,1.55,129.85,25.89,164.25,90.82,184.53,26.84,8.39,55.95,10.82,80.88,10.81h.48c24.93.01,54.04-2.42,80.88-10.81,64.92-20.29,89.27-54.68,90.82-184.53,1.55-129.85-3.81-153.89-37.49-196.32h-.01Z"/>
    <path class="cls-3" d="M361.02,762.19c-24.46-.03-46.48-3.03-63.69-8.69-26.34-8.66-32.03-16.46-36.32-25.04-9.59-19.17-14.56-56.31-15.21-113.54-.67-58.97-.15-100.58,4.51-125.78,2.69-14.52,6.34-30.1,15.83-41.83,11.48-14.19,30.7-19.22,47.9-22.13,24.93-4.22,50.99-5.51,76.41-3.03,22.14,2.16,47.97,5.69,64.65,21.93,12.28,11.96,15.1,29.04,18.06,45.07,4.66,25.19,5.18,66.8,4.51,125.78-.65,57.24-5.62,94.38-15.21,113.54-4.29,8.57-9.98,16.38-36.32,25.04-17.29,5.69-39.41,8.69-63.97,8.69h-1.16,0Z"/>
    <path class="cls-3" d="M416.33,374.43c-.17-.67-.34-1.31-.51-1.98-3.82-15.37-7.58-41.48-1.95-74.97,9.28-55.26,34.01-69.95,20.48-133.71-5.51-25.96-18.84-50.74-45.48-59.35-26.14-8.45-60.57-4.8-79.85,16.31-10.85,11.87-16.61,27.52-19.9,43.04-13.53,63.76,11.21,78.45,20.48,133.71,5.87,34.97,1.52,61.89-2.46,76.95,0,0-3.31,37.84-30.66,63.14,1.56-.81,3.12-1.6,4.66-2.45,2.76-1.51,5.43-2.75,8.48-3.55,1.86-.48,3.68-1.06,5.51-1.6,7.46-2.67,15.35-4.36,22.86-5.64,24.93-4.22,50.99-5.51,76.41-3.02,16.84,1.64,37.96,8.59,53.42,16.82-9.97-12.77-25.03-37.67-31.52-63.71h0Z"/>
    <path class="cls-6" d="M270.78,443.29c-.24,0-.48-.1-.65-.29-.32-.36-.3-.91.06-1.24,12.09-10.96,29.71-15.08,43.71-17.45,26.18-4.43,51.97-5.45,76.65-3.04,21.2,2.07,45.21,5.44,61.89,19.22.37.3.43.86.12,1.23-.3.37-.86.43-1.23.12-16.3-13.47-40.01-16.79-60.95-18.83-24.52-2.4-50.15-1.38-76.18,3.02-13.77,2.33-31.07,6.37-42.82,17.02-.17.15-.38.22-.59.22h0Z"/>
    <path class="cls-6" d="M442.15,363.36l-25.69,11.98-.28-.06c-1.16-.22-2.31-.44-3.46-.65-34.84-6.41-71.28-6.19-105.39.65l-.28.05-25.44-12.13c.59-.37,1.14-.75,1.68-1.14l23.99,11.44c34.24-6.83,70.81-7.03,105.76-.59,1.06.19,2.13.39,3.19.6l24.23-11.29c.54.39,1.1.77,1.7,1.14Z"/>
    <path class="cls-6" d="M361.74,544.49h0c17.93,0,32.46,14.53,32.46,32.46v23.96c0,17.93-14.53,32.46-32.46,32.46h0c-17.93,0-32.46-14.53-32.46-32.46v-23.96c0-17.93,14.53-32.46,32.46-32.46Z"/>
  </g>
  <g>
    <g>
      <path class="cls-2" d="M85.77,206.66h-2.92v-1.46h7.6v1.46h-2.92v7.95h-1.77v-7.95h0Z"/>
      <path class="cls-2" d="M92.31,212.21l-.83,2.4h-1.74l3.25-9.41h2.21l3.39,9.41h-1.86l-.87-2.4h-3.55,0ZM95.46,210.75c-.75-2.15-1.2-3.44-1.41-4.24h-.01c-.23.89-.73,2.4-1.33,4.24h2.75Z"/>
      <path class="cls-2" d="M107.54,211.78c-.39,1.7-1.67,2.95-3.95,2.95-2.93,0-4.34-2.12-4.34-4.79s1.44-4.88,4.42-4.88c2.41,0,3.62,1.4,3.86,2.97h-1.77c-.25-.83-.81-1.57-2.16-1.57-1.81,0-2.53,1.64-2.53,3.42,0,1.68.64,3.44,2.58,3.44,1.37,0,1.86-.87,2.1-1.54h1.78Z"/>
      <path class="cls-2" d="M111.24,206.66h-2.92v-1.46h7.6v1.46h-2.92v7.95h-1.77v-7.95h0Z"/>
      <path class="cls-2" d="M118.98,205.2v9.41h-1.77v-9.41h1.77Z"/>
      <path class="cls-2" d="M129.1,211.78c-.39,1.7-1.67,2.95-3.95,2.95-2.93,0-4.34-2.12-4.34-4.79s1.44-4.88,4.42-4.88c2.41,0,3.62,1.4,3.86,2.97h-1.77c-.25-.83-.81-1.57-2.16-1.57-1.81,0-2.53,1.64-2.53,3.42,0,1.68.64,3.44,2.58,3.44,1.37,0,1.86-.87,2.1-1.54h1.78Z"/>
      <path class="cls-2" d="M132.34,212.21l-.83,2.4h-1.74l3.25-9.41h2.21l3.39,9.41h-1.86l-.87-2.4h-3.55,0ZM135.48,210.75c-.75-2.15-1.2-3.44-1.41-4.24h-.01c-.23.89-.73,2.4-1.33,4.24h2.75Z"/>
      <path class="cls-2" d="M139.9,205.2h1.77v7.95h4.76l-.21,1.46h-6.31v-9.41h0Z"/>
      <path class="cls-2" d="M84.72,222.98h-2.92v-1.46h7.6v1.46h-2.92v7.95h-1.77v-7.95h0Z"/>
      <path class="cls-2" d="M91.26,228.53l-.83,2.4h-1.74l3.25-9.41h2.21l3.39,9.41h-1.86l-.87-2.4h-3.55,0ZM94.41,227.07c-.75-2.15-1.2-3.44-1.41-4.24h-.01c-.23.89-.73,2.4-1.33,4.24h2.75Z"/>
      <path class="cls-2" d="M106.49,228.1c-.39,1.7-1.67,2.95-3.95,2.95-2.93,0-4.34-2.12-4.34-4.79s1.44-4.88,4.42-4.88c2.41,0,3.62,1.4,3.86,2.97h-1.77c-.25-.83-.81-1.57-2.16-1.57-1.81,0-2.53,1.64-2.53,3.42,0,1.68.64,3.44,2.58,3.44,1.37,0,1.86-.87,2.1-1.54h1.78Z"/>
      <path class="cls-2" d="M110.2,222.98h-2.92v-1.46h7.6v1.46h-2.92v7.95h-1.77v-7.95h0Z"/>
      <path class="cls-2" d="M117.93,221.52v9.41h-1.77v-9.41h1.77Z"/>
      <path class="cls-2" d="M128.75,226.18c0,2.6-1.53,4.88-4.55,4.88s-4.43-2.14-4.43-4.84,1.66-4.84,4.56-4.84c2.71,0,4.43,1.95,4.43,4.8h0ZM121.59,226.18c0,1.9.89,3.43,2.67,3.43,1.94,0,2.66-1.61,2.66-3.4s-.82-3.37-2.68-3.37-2.66,1.45-2.66,3.35h0ZM126.71,229.6l2.71,1.87-1.04,1.18-3.27-2.28,1.59-.79h0Z"/>
      <path class="cls-2" d="M132.3,221.52v5.62c0,1.95,1.03,2.51,2.11,2.51,1.25,0,2.07-.64,2.07-2.51v-5.62h1.77v5.54c0,3.16-1.82,4-3.86,4s-3.85-.89-3.85-3.94v-5.59h1.77,0Z"/>
      <path class="cls-2" d="M146.78,226.75h-4.56v2.71h5.02l-.21,1.46h-6.53v-9.41h6.49v1.46h-4.77v2.31h4.56v1.46h0Z"/>
    </g>
    <g>
      <path class="cls-2" d="M113.11,161.59c-4.96,0-9.37-.59-13.1-1.75-5.87-1.83-9.14-4.26-11.31-8.38-2.31-4.39-3.39-11.06-3.52-21.63-.25-20.68.55-24.84,6.1-31.83,2.28-2.88,6.1-4.91,11.67-6.21,5.96-1.39,12.36-1.53,18.51-.4,6.57,1.21,11.02,3.38,13.59,6.61h0c5.55,6.99,6.35,11.16,6.1,31.83-.13,10.57-1.21,17.24-3.52,21.63-2.17,4.12-5.44,6.54-11.31,8.38-3.73,1.17-8.13,1.75-13.09,1.75h-.06l-.03-.24-.02.24h-.02ZM113.14,91.1c-3.41,0-6.81.38-10.07,1.14-5.46,1.28-9.2,3.25-11.41,6.04-5.46,6.88-6.25,11.01-6,31.54.13,10.49,1.2,17.1,3.47,21.41,2.1,3.99,5.3,6.35,11.02,8.14,3.68,1.15,8.04,1.74,12.96,1.74h.14c4.91,0,9.26-.58,12.95-1.74,5.73-1.79,8.92-4.15,11.02-8.14,2.27-4.32,3.34-10.92,3.47-21.41.25-20.53-.54-24.65-6-31.54h0c-2.5-3.15-6.84-5.25-13.3-6.44-2.72-.5-5.49-.75-8.25-.75h0Z"/>
      <path class="cls-1" d="M131.16,110.24c-.48-2.59-.93-5.34-2.92-7.27-.56-.55-1.16-1.02-1.67-1.63-.65-.78-1.13-1.65-1.63-2.53-.75-1.29-1.41-2.64-1.96-4.03-.4-.99-.74-2.01-.99-3.05-.03-.11-.06-.21-.08-.32-.62-2.48-1.22-6.69-.32-12.1,1.5-8.92,5.49-11.29,3.31-21.58-.89-4.19-3.04-8.19-7.34-9.58-4.22-1.36-9.78-.78-12.89,2.63-1.75,1.91-2.68,4.45-3.21,6.95-2.19,10.29,1.81,12.66,3.31,21.58.95,5.64.25,9.99-.4,12.42-.07.28-.07.59-.13.88-.14.76-.32,1.52-.56,2.27-.71,2.27-1.82,4.43-3.42,6.19-.78.87-1.78,1.52-2.51,2.43-1.53,1.89-2.12,4.41-2.55,6.75-.75,4.07-.83,10.78-.73,20.3.1,9.24.91,15.23,2.46,18.33.69,1.39,1.61,2.65,5.86,4.04,2.78.91,6.33,1.4,10.28,1.4h.18c3.96,0,7.53-.48,10.32-1.4,4.25-1.4,5.17-2.66,5.86-4.04,1.55-3.09,2.35-9.09,2.46-18.33.11-9.52.02-16.23-.73-20.3h0Z"/>
      <path class="cls-2" d="M113.25,154.54h-.17c-3.99,0-7.57-.49-10.37-1.41-4.34-1.43-5.28-2.73-6-4.16-1.56-3.13-2.37-9.15-2.48-18.43-.11-9.53-.02-16.26.73-20.35.42-2.28,1.01-4.88,2.6-6.86.41-.51.91-.95,1.39-1.37.39-.34.79-.68,1.13-1.07,1.49-1.65,2.62-3.7,3.37-6.1.24-.75.42-1.5.55-2.24.02-.11.03-.22.05-.34.02-.18.04-.37.09-.56.68-2.59,1.31-6.84.39-12.32-.52-3.09-1.32-5.35-2.1-7.53-1.41-3.96-2.63-7.38-1.2-14.15.64-3.05,1.71-5.36,3.27-7.06,3.36-3.69,9.17-3.99,13.14-2.7,4.82,1.56,6.74,6.16,7.5,9.76,1.43,6.76.21,10.18-1.2,14.15-.78,2.18-1.58,4.43-2.1,7.53-.89,5.3-.32,9.45.31,12l.08.32c.25.98.58,2,.98,3.02.53,1.33,1.18,2.67,1.95,4l.18.31c.45.78.87,1.51,1.43,2.19.33.4.7.73,1.09,1.09.19.17.38.35.56.53,1.97,1.92,2.47,4.58,2.94,7.16l.05.24c.75,4.08.84,10.81.73,20.35-.1,9.28-.91,15.3-2.48,18.43-.72,1.43-1.66,2.74-6,4.16-2.81.93-6.41,1.41-10.4,1.41h0ZM113.1,47.7c-3,0-6.14.91-8.26,3.24-1.5,1.63-2.52,3.87-3.15,6.83-1.41,6.63-.21,9.99,1.18,13.88.75,2.09,1.6,4.47,2.12,7.61.93,5.56.3,9.88-.4,12.52-.04.15-.06.31-.07.48-.01.13-.03.25-.05.37-.13.75-.32,1.52-.56,2.29-.77,2.47-1.94,4.58-3.47,6.28-.36.4-.78.76-1.17,1.1-.49.43-.95.83-1.33,1.31-1.53,1.89-2.09,4.42-2.51,6.64-.75,4.05-.83,10.75-.72,20.25.1,9.2.9,15.16,2.43,18.22.67,1.33,1.56,2.55,5.72,3.92,2.75.9,6.29,1.39,10.21,1.39h.18c3.94,0,7.48-.48,10.25-1.39,4.16-1.37,5.05-2.59,5.72-3.92,1.53-3.06,2.32-9.02,2.43-18.22.11-9.51.02-16.2-.72-20.25l-.05-.24c-.46-2.5-.94-5.09-2.8-6.9-.18-.18-.37-.35-.56-.52-.39-.35-.78-.71-1.13-1.13-.59-.7-1.04-1.49-1.48-2.25l-.18-.31c-.78-1.34-1.44-2.71-1.98-4.06-.41-1.05-.75-2.08-1.01-3.08l-.08-.32c-.64-2.59-1.22-6.81-.32-12.2.53-3.13,1.37-5.51,2.12-7.61,1.39-3.89,2.59-7.26,1.18-13.88-.74-3.47-2.58-7.91-7.18-9.4-1.31-.43-2.82-.67-4.38-.67l.02.02Z"/>
      <g>
        <path class="cls-2" d="M154.23,195.2h-82.12l-.02-.21c-.05-.44-5.16-44.6-6.37-65.97-1.15-20.43,3.18-29.57,15.97-33.73,4.03-1.31,7.58-2.22,10.44-2.95,3.73-.95,6.43-1.64,7.97-2.62.09-.06.18-.12.26-.18.6-.43.96-.91,1.1-1.47.69-2.68-.13-8.25-.4-9.89-.06-.36-.17-.7-.32-1.02-1.13-2.41-4.77-11.01-4.09-20.35.1-1.48.4-2.88.89-4.16.55-1.46,1.35-2.79,2.37-3.94.92-1.04,2.02-1.96,3.29-2.71,1.13-.67,2.37-1.22,3.69-1.62,3.57-1.08,7.93-1.17,11.67-.24,1.32.33,2.58.8,3.75,1.41,1.31.68,2.47,1.51,3.46,2.48,1.1,1.08,1.99,2.33,2.63,3.71.71,1.53,1.14,3.24,1.28,5.08.68,9.34-2.96,17.94-4.09,20.35-.15.32-.26.67-.32,1.02-.27,1.64-1.09,7.21-.4,9.89.14.57.52,1.06,1.14,1.5.09.06.17.12.26.18,1.55.97,4.23,1.65,7.94,2.6,2.85.73,6.41,1.64,10.44,2.95,12.79,4.16,17.13,13.31,15.97,33.73-1.2,21.37-6.31,65.53-6.37,65.97l-.02.21h0ZM72.54,194.72h81.27c.39-3.35,5.18-45.14,6.34-65.73,1.13-20.16-3.11-29.17-15.65-33.26-4.01-1.31-7.56-2.21-10.41-2.94-3.75-.96-6.46-1.65-8.07-2.66-.1-.06-.2-.13-.29-.2-.71-.51-1.15-1.09-1.32-1.77-.69-2.7.04-7.95.39-10.08.06-.4.18-.79.36-1.15,1.12-2.39,4.72-10.89,4.05-20.11-.13-1.78-.54-3.44-1.23-4.91-.62-1.33-1.47-2.53-2.54-3.57-.95-.94-2.08-1.74-3.34-2.4-1.13-.59-2.36-1.05-3.64-1.37-3.67-.91-7.94-.82-11.42.24-1.28.39-2.49.92-3.58,1.58-1.22.73-2.29,1.61-3.17,2.62-.98,1.12-1.75,2.39-2.28,3.8-.47,1.24-.75,2.59-.86,4.03-.67,9.22,2.93,17.72,4.05,20.11.17.36.29.75.36,1.15.35,2.13,1.09,7.38.39,10.08-.17.67-.59,1.24-1.29,1.74-.09.06-.18.13-.28.19-1.6,1.02-4.34,1.72-8.11,2.69-2.85.73-6.39,1.63-10.41,2.94-12.54,4.08-16.78,13.09-15.65,33.26,1.16,20.6,5.95,62.38,6.34,65.73h0Z"/>
        <path class="cls-2" d="M154.03,195.59l.03-.24h-82.08l-.04-.35c-.05-.44-5.16-44.66-6.37-65.98-1.16-20.51,3.2-29.7,16.08-33.89,4.07-1.32,7.6-2.23,10.45-2.95,3.72-.95,6.4-1.64,7.93-2.6.09-.05.17-.11.25-.17.57-.41.92-.87,1.05-1.39.71-2.74-.21-8.66-.41-9.82-.05-.33-.16-.67-.3-.98-1.13-2.41-4.79-11.02-4.11-20.42.1-1.49.41-2.91.9-4.21.56-1.48,1.36-2.82,2.4-3.99.94-1.06,2.06-1.98,3.33-2.74,1.14-.68,2.39-1.23,3.73-1.64,3.59-1.09,7.99-1.18,11.75-.24,1.34.33,2.61.81,3.78,1.42,1.32.68,2.49,1.53,3.49,2.5,1.12,1.09,2.01,2.36,2.67,3.75.72,1.54,1.15,3.26,1.29,5.14.68,9.39-2.97,18-4.11,20.42-.15.32-.25.65-.3.98-.19,1.16-1.11,7.07-.41,9.82.13.53.49.99,1.08,1.41.09.06.17.12.25.18,1.52.95,4.18,1.63,7.87,2.57l.08.02c2.84.73,6.38,1.63,10.38,2.94,12.88,4.19,17.23,13.37,16.08,33.89-1.19,21.22-6.32,65.54-6.37,65.98v.04s.22,0,.22,0l-.59.54ZM72.56,195.05h81.53v-.07c.06-.44,5.18-44.75,6.37-65.96,1.15-20.34-3.16-29.44-15.87-33.58-4-1.3-7.53-2.2-10.36-2.93l-.06-.02c-3.73-.95-6.41-1.64-7.98-2.62-.09-.06-.18-.12-.27-.18-.65-.47-1.04-.98-1.2-1.59-.7-2.74.13-8.31.4-9.95.06-.36.17-.72.33-1.06,1.13-2.4,4.76-10.96,4.08-20.27-.14-1.83-.56-3.53-1.26-5.03-.64-1.36-1.51-2.6-2.6-3.66-.98-.96-2.13-1.78-3.42-2.45-1.15-.6-2.4-1.07-3.72-1.4-3.72-.92-8.05-.83-11.59.24-1.31.4-2.54.94-3.66,1.61-1.24.74-2.34,1.64-3.25,2.68-1.01,1.15-1.8,2.46-2.34,3.9-.48,1.27-.77,2.66-.88,4.12-.67,9.33,2.95,17.87,4.08,20.27.16.34.27.7.33,1.06.27,1.64,1.1,7.22.4,9.95-.15.59-.53,1.1-1.16,1.56-.08.06-.17.12-.27.18-1.56.99-4.27,1.68-8.01,2.64-2.84.73-6.37,1.63-10.43,2.95-12.71,4.14-17.02,13.24-15.87,33.58,1.2,21.31,6.31,65.52,6.36,65.96v.08h.17l-.03-.3c-.53-4.59-5.19-45.43-6.34-65.74-1.14-20.25,3.13-29.3,15.75-33.41,3.94-1.28,7.43-2.17,10.24-2.89l.18-.05c3.76-.96,6.48-1.66,8.07-2.67.1-.07.19-.13.27-.18.67-.48,1.07-1.02,1.23-1.66.69-2.68-.05-7.9-.39-10.02-.07-.4-.19-.78-.34-1.11-1.12-2.4-4.73-10.95-4.06-20.19.1-1.45.4-2.82.87-4.07.53-1.42,1.31-2.71,2.31-3.85.89-1.01,1.97-1.91,3.21-2.65,1.1-.66,2.31-1.19,3.62-1.59,3.52-1.07,7.82-1.16,11.5-.24,1.3.33,2.53.79,3.67,1.38,1.28.66,2.41,1.48,3.38,2.42,1.07,1.05,1.94,2.27,2.57,3.62.7,1.49,1.12,3.16,1.24,4.96.67,9.23-2.94,17.78-4.06,20.19-.17.35-.28.73-.34,1.11-.27,1.65-1.1,7.25-.39,10.02.16.64.58,1.19,1.26,1.68.09.07.19.13.28.19,1.58.99,4.26,1.67,7.97,2.62l.06.02c2.65.67,6.28,1.59,10.42,2.94,12.62,4.11,16.89,13.16,15.75,33.41-1.14,20.22-5.81,61.14-6.34,65.74l-.02.13h-81.3l-.08.17ZM72.67,194.57h81c.6-5.21,5.19-45.57,6.32-65.59,1.13-20.07-3.08-29.05-15.54-33.1-4.13-1.34-7.75-2.26-10.4-2.94h-.06c-3.73-.97-6.43-1.66-8.05-2.67-.1-.07-.2-.13-.3-.2-.75-.53-1.2-1.13-1.38-1.85-.7-2.75.04-8.01.39-10.14.06-.41.19-.81.37-1.19,1.11-2.38,4.7-10.87,4.03-20.03-.13-1.77-.54-3.4-1.22-4.86-.62-1.32-1.46-2.5-2.5-3.53-.94-.93-2.05-1.72-3.31-2.37-1.12-.58-2.33-1.04-3.61-1.36-3.63-.91-7.87-.82-11.34.23-1.28.39-2.47.92-3.55,1.56-1.21.72-2.27,1.59-3.14,2.59-.98,1.11-1.74,2.37-2.25,3.75-.46,1.23-.74,2.57-.85,3.99-.66,9.17,2.92,17.65,4.03,20.03.17.36.29.76.37,1.19.35,2.14,1.09,7.41.39,10.14-.18.71-.62,1.31-1.35,1.83-.08.06-.18.12-.27.18-1.65,1.05-4.39,1.75-8.18,2.72l-.18.05c-2.8.72-6.29,1.61-10.22,2.89-12.46,4.06-16.67,13.03-15.54,33.1,1.13,20.11,5.72,60.33,6.32,65.58Z"/>
      </g>
      <g>
        <path class="cls-6" d="M127.48,142.91h-1.68c-.03.35-.1.95-.12,1.2.15-.16.4-.26.78-.26.9,0,1.33.7,1.33,1.68,0,1.12-.36,2.03-1.64,2.03-1.03,0-1.49-.63-1.52-1.51h.97c.02.36.13.72.58.72.51,0,.6-.48.6-1.11s-.12-1.02-.6-1.02c-.37,0-.49.25-.59.56l-.9-.13c.1-.66.26-2.28.3-3.01h2.6l-.11.85h0Z"/>
        <path class="cls-2" d="M129.94,150.94c0-.71.32-1.53,1.48-1.53.97,0,1.41.55,1.41,1.39,0,.67-.29.99-.66,1.13v.02c.45.14.82.51.82,1.3,0,.94-.36,1.73-1.62,1.73-1.03,0-1.5-.6-1.52-1.5h.95c.02.37.16.71.59.71.46,0,.59-.35.59-.93,0-.62-.2-.87-.83-.87h-.25v-.81h.22c.51,0,.7-.16.7-.73,0-.4-.09-.67-.49-.67-.43,0-.5.41-.52.74h-.9.02Z"/>
        <path class="cls-2" d="M134.71,161.35v-.06c0-.93.4-1.58,1.22-2.5.63-.71.77-.91.77-1.46,0-.41-.09-.69-.49-.69s-.53.35-.55.89h-.95c0-.85.37-1.67,1.52-1.67,1.05,0,1.47.61,1.47,1.51,0,.64-.16.99-.86,1.73-.51.54-.89,1.02-1.01,1.4h2.01l-.13.85h-3.02Z"/>
      </g>
    </g>
  </g>
  <g>
    <g>
      <path class="cls-2" d="M557.17,210.95c0-1.66.02-3.45.06-4.49h-.06c-.43,1.79-1.57,5.24-2.54,8.19h-1.52c-.73-2.52-1.91-6.42-2.33-8.21h-.06c.08,1.1.12,3.09.12,4.71v3.51h-1.62v-9.43h2.63c.85,2.62,1.84,5.95,2.13,7.28h.02c.23-1.13,1.44-4.72,2.33-7.28h2.54v9.43h-1.71v-3.7h0Z"/>
      <path class="cls-2" d="M562.8,212.25l-.83,2.4h-1.74l3.25-9.43h2.21l3.39,9.43h-1.86l-.87-2.4h-3.55ZM565.96,210.79c-.75-2.16-1.2-3.44-1.41-4.24h-.01c-.23.89-.73,2.4-1.33,4.24h2.76,0Z"/>
      <path class="cls-2" d="M572.12,210.75v3.9h-1.73v-9.43h3.99c2.01,0,3.09,1.1,3.09,2.56,0,1.25-.7,1.96-1.45,2.23.57.18,1.27.7,1.27,2.37v.44c0,.64,0,1.4.13,1.82h-1.68c-.17-.41-.18-1.12-.18-2.09v-.16c0-1.14-.3-1.66-1.88-1.66h-1.55ZM572.12,209.32h1.82c1.22,0,1.73-.47,1.73-1.35s-.55-1.32-1.64-1.32h-1.9v2.67h0Z"/>
      <path class="cls-2" d="M579.38,205.23h1.75v4.35c.65-.72,2.74-2.93,4.04-4.35h2.14l-3.88,3.93,4.04,5.49h-2.13l-3.14-4.34-1.06,1v3.34h-1.75v-9.43h0Z"/>
      <path class="cls-2" d="M589.61,211.94c.23,1.01.94,1.49,2.12,1.49s1.73-.52,1.73-1.28c0-.83-.46-1.23-2.16-1.63-2.44-.58-3.13-1.45-3.13-2.74,0-1.56,1.16-2.69,3.35-2.69,2.42,0,3.39,1.33,3.52,2.66h-1.78c-.12-.67-.51-1.32-1.78-1.32-.94,0-1.48.4-1.48,1.15s.44,1.03,2.01,1.4c2.72.65,3.28,1.68,3.28,2.97,0,1.65-1.24,2.84-3.67,2.84s-3.56-1.22-3.78-2.84h1.78Z"/>
      <path class="cls-2" d="M604.89,210.95c0-1.66.02-3.45.06-4.49h-.06c-.43,1.79-1.57,5.24-2.54,8.19h-1.52c-.73-2.52-1.91-6.42-2.33-8.21h-.06c.08,1.1.11,3.09.11,4.71v3.51h-1.62v-9.43h2.63c.85,2.62,1.84,5.95,2.13,7.28h.02c.23-1.13,1.44-4.72,2.33-7.28h2.54v9.43h-1.71v-3.7h0Z"/>
      <path class="cls-2" d="M610.53,212.25l-.83,2.4h-1.74l3.25-9.43h2.21l3.39,9.43h-1.86l-.87-2.4h-3.55ZM613.68,210.79c-.75-2.16-1.2-3.44-1.41-4.24h-.01c-.23.89-.73,2.4-1.33,4.24h2.76,0Z"/>
      <path class="cls-2" d="M618.11,214.65v-9.43h2.23c1.24,2.14,3.67,6.26,4.14,7.29h.02c-.1-1.06-.1-2.65-.1-4.19v-3.1h1.62v9.43h-2.1c-1.09-1.91-3.73-6.52-4.24-7.6h-.02c.07.91.08,2.73.08,4.42v3.17h-1.63,0Z"/>
      <path class="cls-2" d="M629.4,211.94c.23,1.01.94,1.49,2.12,1.49s1.73-.52,1.73-1.28c0-.83-.46-1.23-2.16-1.63-2.44-.58-3.13-1.45-3.13-2.74,0-1.56,1.16-2.69,3.35-2.69,2.42,0,3.39,1.33,3.52,2.66h-1.78c-.12-.67-.51-1.32-1.78-1.32-.94,0-1.48.4-1.48,1.15s.44,1.03,2.01,1.4c2.72.65,3.28,1.68,3.28,2.97,0,1.65-1.24,2.84-3.67,2.84s-3.56-1.22-3.78-2.84h1.78Z"/>
      <path class="cls-2" d="M636.68,205.23h1.77v3.77h4.17v-3.77h1.77v9.43h-1.77v-4.19h-4.17v4.19h-1.77v-9.43Z"/>
      <path class="cls-2" d="M648.53,205.23v9.43h-1.77v-9.43h1.77Z"/>
      <path class="cls-2" d="M650.88,205.23h3.79c1.94,0,3.27,1.09,3.27,2.86,0,1.97-1.47,2.93-3.32,2.93h-1.96v3.64h-1.77v-9.43ZM652.66,209.58h1.77c1.06,0,1.72-.45,1.72-1.46s-.73-1.47-1.68-1.47h-1.82v2.93h0Z"/>
      <path class="cls-2" d="M557.16,223.04h-2.93v-1.47h7.61v1.47h-2.92v7.96h-1.77v-7.96h0Z"/>
      <path class="cls-2" d="M564.91,221.58v9.43h-1.77v-9.43h1.77Z"/>
      <path class="cls-2" d="M569,227.1v3.9h-1.73v-9.43h3.99c2.01,0,3.09,1.1,3.09,2.56,0,1.25-.7,1.96-1.45,2.23.57.18,1.27.7,1.27,2.37v.44c0,.64,0,1.4.13,1.82h-1.68c-.17-.41-.18-1.12-.18-2.09v-.16c0-1.14-.3-1.66-1.88-1.66h-1.55ZM569,225.67h1.82c1.22,0,1.73-.47,1.73-1.35s-.55-1.32-1.64-1.32h-1.9v2.67h0Z"/>
      <path class="cls-2" d="M579.55,221.58h3.61c2.71,0,4.5,1.81,4.5,4.6s-1.74,4.82-4.58,4.82h-3.54v-9.43ZM581.31,229.56h1.68c1.95,0,2.84-1.43,2.84-3.36,0-1.65-.82-3.17-2.82-3.17h-1.69v6.53h0Z"/>
      <path class="cls-2" d="M588.93,224.93c.38-1.27.62-2.86.64-3.89h1.78c-.1,1.25-.52,2.86-1.04,3.89h-1.38Z"/>
      <path class="cls-2" d="M593.33,228.6l-.83,2.4h-1.74l3.25-9.43h2.21l3.39,9.43h-1.86l-.87-2.4h-3.55ZM596.48,227.13c-.75-2.16-1.2-3.44-1.41-4.24h-.01c-.23.89-.73,2.4-1.33,4.24h2.76,0Z"/>
      <path class="cls-2" d="M600.91,221.58h3.61c2.71,0,4.5,1.81,4.5,4.6s-1.74,4.82-4.58,4.82h-3.54v-9.43ZM602.68,229.56h1.68c1.95,0,2.84-1.43,2.84-3.36,0-1.65-.82-3.17-2.82-3.17h-1.69v6.53h0Z"/>
      <path class="cls-2" d="M612.6,227.1v3.9h-1.73v-9.43h3.99c2.01,0,3.09,1.1,3.09,2.56,0,1.25-.7,1.96-1.45,2.23.57.18,1.27.7,1.27,2.37v.44c0,.64,0,1.4.13,1.82h-1.68c-.17-.41-.18-1.12-.18-2.09v-.16c0-1.14-.3-1.66-1.88-1.66h-1.55ZM612.6,225.67h1.82c1.22,0,1.73-.47,1.73-1.35s-.55-1.32-1.64-1.32h-1.9v2.67h0Z"/>
      <path class="cls-2" d="M626.15,226.82h-4.57v2.71h5.03l-.21,1.47h-6.54v-9.43h6.49v1.47h-4.77v2.31h4.57v1.47h0Z"/>
      <path class="cls-2" d="M629.4,228.28c.23,1.01.94,1.49,2.12,1.49s1.73-.52,1.73-1.28c0-.83-.46-1.23-2.16-1.63-2.44-.58-3.13-1.45-3.13-2.74,0-1.56,1.16-2.69,3.35-2.69,2.42,0,3.39,1.33,3.52,2.66h-1.78c-.12-.67-.51-1.32-1.78-1.32-.94,0-1.48.4-1.48,1.15s.44,1.03,2.01,1.4c2.72.65,3.28,1.68,3.28,2.97,0,1.65-1.24,2.84-3.67,2.84s-3.56-1.22-3.78-2.84h1.78Z"/>
      <path class="cls-2" d="M638.01,228.28c.23,1.01.94,1.49,2.12,1.49s1.73-.52,1.73-1.28c0-.83-.46-1.23-2.16-1.63-2.44-.58-3.13-1.45-3.13-2.74,0-1.56,1.16-2.69,3.35-2.69,2.42,0,3.39,1.33,3.52,2.66h-1.78c-.12-.67-.51-1.32-1.78-1.32-.94,0-1.48.4-1.48,1.15s.44,1.03,2.01,1.4c2.72.65,3.28,1.68,3.28,2.97,0,1.65-1.24,2.84-3.67,2.84s-3.56-1.22-3.78-2.84h1.78Z"/>
      <path class="cls-2" d="M651.58,226.82h-4.57v2.71h5.03l-.21,1.47h-6.54v-9.43h6.49v1.47h-4.77v2.31h4.57v1.47h0Z"/>
    </g>
    <path class="cls-2" d="M644.58,195.48h-82.63l-.05-.44c-.05-.44-5.16-44.63-6.37-66.03-1.16-20.58,3.22-29.8,16.16-34.02,4.04-1.31,7.6-2.22,10.46-2.96,3.71-.95,6.39-1.63,7.9-2.59.08-.05.17-.11.24-.17.56-.41.88-.83,1.01-1.33.68-2.64-.14-8.16-.41-9.78-.05-.33-.15-.65-.29-.96-1.14-2.43-4.79-11.1-4.12-20.49.11-1.51.42-2.94.9-4.24.56-1.49,1.38-2.85,2.42-4.03,4.43-5.02,12.55-6.83,19.75-4.4,6.14,2.07,10.07,6.81,10.49,12.67.69,9.43-2.98,18.07-4.12,20.49-.14.3-.24.61-.29.96-.27,1.63-1.08,7.14-.41,9.78.13.5.47.95,1.04,1.35.11.08.17.12.24.16,1.53.95,4.19,1.64,7.89,2.58,2.86.73,6.41,1.64,10.45,2.95l3,.98h-.38c10.91,4.6,14.61,13.92,13.53,33.04-1.21,21.39-6.32,65.58-6.37,66.03l-.05.44ZM562.84,194.48h80.85c.54-4.7,5.17-45.32,6.31-65.53,1.29-22.88-4.97-29.59-15.48-33.01l-.86-.28c-3.65-1.15-6.88-1.98-9.51-2.66-3.78-.97-6.51-1.67-8.16-2.69-.08-.05-.16-.1-.24-.16-.83-.59-1.3-1.21-1.49-1.96-.71-2.75.03-8.05.39-10.19.07-.43.2-.84.37-1.22.79-1.69,4.71-10.57,4.03-19.99-.4-5.52-3.98-9.82-9.81-11.79-6.82-2.3-14.51-.61-18.68,4.11-.97,1.09-1.72,2.34-2.24,3.72-.45,1.21-.74,2.54-.84,3.96-.66,9.14,2.91,17.61,4.03,19.99.18.4.31.81.37,1.22.35,2.14,1.1,7.44.39,10.19-.19.73-.64,1.35-1.39,1.89-.09.07-.2.14-.3.2-1.64,1.04-4.38,1.74-8.19,2.71-2.85.73-6.39,1.63-10.4,2.94-10.51,3.42-16.77,10.14-15.48,33.01,1.14,20.21,5.77,60.83,6.31,65.53Z"/>
    <path class="cls-2" d="M608.75,158.33h-10.94c-11.73,0-21.27-9.54-21.27-21.26v-25.11c0-11.73,9.54-21.26,21.27-21.26h10.94c11.73,0,21.26,9.54,21.26,21.26v25.11c0,11.73-9.54,21.26-21.26,21.26ZM597.81,91.4c-11.34,0-20.56,9.23-20.56,20.56v25.11c0,11.34,9.23,20.56,20.56,20.56h10.94c11.34,0,20.56-9.23,20.56-20.56v-25.11c0-11.34-9.23-20.56-20.56-20.56h-10.94Z"/>
    <path class="cls-2" d="M608.75,150.08h-10.94c-7.17,0-13.01-5.83-13.01-13.01v-25.11c0-7.17,5.83-13.01,13.01-13.01h10.94c7.17,0,13.01,5.83,13.01,13.01v25.11c0,7.17-5.83,13.01-13.01,13.01ZM597.81,99.66c-6.79,0-12.31,5.52-12.31,12.31v25.11c0,6.79,5.52,12.31,12.31,12.31h10.94c6.79,0,12.31-5.52,12.31-12.31v-25.11c0-6.79-5.52-12.31-12.31-12.31h-10.94Z"/>
    <path class="cls-2" d="M603.89,131.16h-1.22c-2.72,0-4.94-2.22-4.94-4.94v-4.99c0-2.72,2.22-4.94,4.94-4.94h1.22c2.72,0,4.94,2.22,4.94,4.94v4.99c0,2.72-2.22,4.94-4.94,4.94ZM602.67,116.99c-2.34,0-4.24,1.9-4.24,4.24v4.99c0,2.34,1.9,4.24,4.24,4.24h1.22c2.34,0,4.24-1.9,4.24-4.24v-4.99c0-2.34-1.9-4.24-4.24-4.24h-1.22Z"/>
    <g>
      <path class="cls-2" d="M603.1,125.52c-.02.28-.13,1.73-1.68,1.73s-1.77-1.4-1.77-2.9c0-1.81.53-2.88,1.83-2.88,1.48,0,1.6,1.27,1.62,1.72h-.99c-.02-.19-.03-.87-.64-.87s-.78.77-.78,2.05c0,1.05.1,2.05.75,2.05.6,0,.64-.67.67-.89h1,0Z"/>
      <path class="cls-2" d="M606.02,127.14l-.83-2.06h0l-.84,2.06h-1.06l1.35-2.86-1.3-2.73h1.14l.78,1.86h0l.77-1.86h1.06l-1.28,2.63,1.36,2.96h-1.14Z"/>
    </g>
    <g>
      <path class="cls-2" d="M615.65,141.46h-1.68c-.03.35-.1.95-.13,1.2.15-.16.4-.26.78-.26.9,0,1.33.7,1.33,1.68,0,1.12-.36,2.04-1.65,2.04-1.03,0-1.5-.63-1.52-1.51h.98c.02.36.13.72.58.72.51,0,.61-.48.61-1.12s-.12-1.02-.6-1.02c-.37,0-.49.26-.59.56l-.9-.13c.1-.66.26-2.28.3-3.01h2.6l-.11.85h0Z"/>
      <path class="cls-2" d="M617.78,149.07c0-.71.32-1.54,1.48-1.54.98,0,1.41.55,1.41,1.4,0,.67-.29.99-.66,1.13v.02c.45.14.82.51.82,1.3,0,.94-.36,1.73-1.62,1.73-1.03,0-1.5-.6-1.52-1.5h.95c.02.37.16.71.59.71.46,0,.6-.35.6-.93,0-.62-.2-.87-.83-.87h-.25v-.81h.22c.51,0,.7-.16.7-.73,0-.4-.09-.67-.49-.67-.43,0-.5.41-.52.75h-.9,0Z"/>
      <path class="cls-2" d="M622.67,160.03v-.06c0-.93.4-1.58,1.22-2.5.63-.71.78-.91.78-1.46,0-.41-.09-.69-.49-.69s-.53.35-.55.89h-.95c0-.86.37-1.67,1.53-1.67,1.05,0,1.47.62,1.47,1.52,0,.64-.16.99-.86,1.74-.51.54-.89,1.02-1.01,1.4h2.01l-.13.85h-3.02,0Z"/>
    </g>
  </g>
</svg>