<?xml version="1.0" encoding="UTF-8"?>
<svg id="Layer_1" data-name="Layer 1" xmlns="http://www.w3.org/2000/svg" viewBox="0 0 1258.13 1858.96">
  <defs>
    <style>
      .cls-1 {
        stroke-width: 1.27px;
      }

      .cls-1, .cls-2, .cls-3, .cls-4 {
        stroke-miterlimit: 10;
      }

      .cls-1, .cls-2, .cls-4 {
        stroke: #004fc7;
      }

      .cls-1, .cls-3, .cls-4 {
        fill: none;
      }

      .cls-5 {
        fill: #9bd2f3;
      }

      .cls-5, .cls-6, .cls-7, .cls-8, .cls-9, .cls-10 {
        stroke-width: 0px;
      }

      .cls-2 {
        stroke-width: .53px;
      }

      .cls-2, .cls-7 {
        fill: #004fc7;
      }

      .cls-6 {
        fill: #0095ec;
      }

      .cls-3 {
        stroke: #0095ec;
        stroke-width: 1.52px;
      }

      .cls-4 {
        stroke-width: .75px;
      }

      .cls-8 {
        fill: #f9d1a0;
      }

      .cls-9 {
        fill: #fff;
      }

      .cls-10 {
        fill: #81c8f4;
      }
    </style>
  </defs>
  <rect class="cls-9" x="-300.41" y="300.41" width="1858.96" height="1258.13" transform="translate(1558.54 300.41) rotate(90)"/>
  <rect class="cls-8" x="35" y="35" width="1188.13" height="1788.96"/>
  <g>
    <g>
      <path class="cls-7" d="M1104.43,1685.08h2.48c1.96,0,3.38,1.25,3.38,3.57,0,2.45-1.28,3.92-3.49,3.92h-2.36v-7.5ZM1105.48,1691.72h1.28c1.64,0,2.44-1.14,2.44-3.05,0-1.75-.94-2.74-2.43-2.74h-1.29v5.79Z"/>
      <path class="cls-7" d="M1112.27,1690.01c0,1.03.43,1.84,1.37,1.84.85,0,1.11-.58,1.21-.86h1c-.2.73-.76,1.69-2.24,1.69-1.74,0-2.36-1.33-2.36-2.88,0-1.36.67-2.86,2.41-2.86s2.27,1.35,2.27,2.65c0,.04,0,.38,0,.43h-3.65ZM1114.93,1689.29c-.03-.88-.38-1.56-1.3-1.56-1.04,0-1.29.93-1.34,1.56h2.64Z"/>
      <path class="cls-7" d="M1117.54,1687.04c.71,2.26,1.18,3.77,1.35,4.57h.01c.12-.69.98-3.21,1.4-4.57h1l-1.9,5.54h-1.1l-1.84-5.54h1.08Z"/>
      <path class="cls-7" d="M1122.8,1690.01c0,1.03.43,1.84,1.37,1.84.85,0,1.11-.58,1.21-.86h1c-.2.73-.76,1.69-2.24,1.69-1.74,0-2.36-1.33-2.36-2.88,0-1.36.67-2.86,2.41-2.86s2.27,1.35,2.27,2.65c0,.04,0,.38-.01.43h-3.65ZM1125.46,1689.29c-.03-.88-.38-1.56-1.3-1.56-1.04,0-1.29.93-1.34,1.56h2.64Z"/>
      <path class="cls-7" d="M1127.65,1692.57v-7.92h1.01v7.92h-1.01Z"/>
      <path class="cls-7" d="M1134.79,1689.72c0,1.61-.72,2.95-2.51,2.95s-2.44-1.41-2.44-2.93.79-2.82,2.51-2.82c1.61,0,2.44,1.21,2.44,2.79ZM1130.88,1689.73c0,1.26.5,2.11,1.46,2.11s1.41-.84,1.41-2.12c0-1.18-.48-1.96-1.45-1.96s-1.43.8-1.43,1.97Z"/>
      <path class="cls-7" d="M1136.98,1691.94v2.81h-1.01v-6.09c0-.76,0-1.28-.02-1.63h.99c.02.19.03.56.03.86.26-.53.78-.97,1.7-.97,1.19,0,2.07.94,2.07,2.79s-1,2.94-2.3,2.94c-.78,0-1.24-.31-1.47-.72ZM1139.71,1689.75c0-1.3-.52-1.96-1.37-1.96-1.09,0-1.41.73-1.41,2.03,0,1.19.24,1.99,1.36,1.99.9,0,1.42-.74,1.42-2.07Z"/>
      <path class="cls-7" d="M1142.94,1691.94v2.81h-1.01v-6.09c0-.76,0-1.28-.02-1.63h.99c.02.19.03.56.03.86.26-.53.78-.97,1.7-.97,1.19,0,2.07.94,2.07,2.79s-1,2.94-2.3,2.94c-.78,0-1.24-.31-1.47-.72ZM1145.67,1689.75c0-1.3-.52-1.96-1.37-1.96-1.09,0-1.41.73-1.41,2.03,0,1.19.24,1.99,1.36,1.99.9,0,1.42-.74,1.42-2.07Z"/>
      <path class="cls-7" d="M1148.56,1690.01c0,1.03.43,1.84,1.37,1.84.85,0,1.11-.58,1.21-.86h1c-.2.73-.76,1.69-2.24,1.69-1.74,0-2.36-1.33-2.36-2.88,0-1.36.67-2.86,2.41-2.86s2.27,1.35,2.27,2.65c0,.04,0,.38,0,.43h-3.65ZM1151.22,1689.29c-.03-.88-.38-1.56-1.3-1.56-1.04,0-1.29.93-1.34,1.56h2.64Z"/>
      <path class="cls-7" d="M1157.06,1691.94v2.81h-1.01v-6.09c0-.76,0-1.28-.02-1.63h.99c.02.19.03.56.03.86.26-.53.78-.97,1.7-.97,1.19,0,2.07.94,2.07,2.79s-1,2.94-2.3,2.94c-.78,0-1.24-.31-1.47-.72ZM1159.79,1689.75c0-1.3-.52-1.96-1.37-1.96-1.09,0-1.41.73-1.41,2.03,0,1.19.24,1.99,1.36,1.99.9,0,1.42-.74,1.42-2.07Z"/>
      <path class="cls-7" d="M1165.96,1691.3c0,.38.03.96.08,1.27h-.91c-.04-.19-.08-.49-.08-.82-.22.54-.77.92-1.65.92-1.36,0-1.78-.9-1.78-1.68,0-.86.57-1.77,2.54-1.77h.81v-.51c0-.51-.15-1.02-1.03-1.02-.77,0-1.03.36-1.11.93h-.99c.08-.92.61-1.7,2.13-1.7,1.19,0,2,.46,2,1.74v2.63ZM1165,1689.93h-.84c-1.27,0-1.51.52-1.51,1,0,.51.31.93.98.93,1.04,0,1.37-.7,1.37-1.81v-.11Z"/>
      <path class="cls-7" d="M1167.51,1688.92c0-.89,0-1.58-.02-1.88h.99c.02.26.03.61.03,1.09.25-.64.83-1.18,1.77-1.19v1.04c-1.22.03-1.75.7-1.75,1.91v2.68h-1.01v-3.66Z"/>
      <path class="cls-7" d="M1171.47,1688.64v-1.53h.99v1.53h-.99ZM1171.47,1692.58v-1.54h.99v1.54h-.99Z"/>
      <path class="cls-7" d="M1104.43,1696.35h1.04v6.62h3.56l-.14.88h-4.46v-7.5Z"/>
      <path class="cls-7" d="M1108.85,1698.66l-.09-1.77v-.99h.95v1l-.09,1.75h-.76Z"/>
      <path class="cls-7" d="M1115.33,1700.37h-3.35v2.6h3.69l-.14.88h-4.57v-7.5h4.53v.88h-3.5v2.24h3.35v.89Z"/>
      <path class="cls-7" d="M1121.07,1702.05c-.21,1.09-.9,1.9-2.26,1.9-1.58,0-2.37-1.04-2.37-2.88,0-1.63.84-2.87,2.43-2.87s2.13,1.07,2.19,1.96h-1.02c-.1-.6-.42-1.14-1.2-1.14-.96,0-1.37.85-1.37,2.03,0,1.39.49,2.09,1.36,2.09.74,0,1.04-.46,1.22-1.09h1.01Z"/>
      <path class="cls-7" d="M1126.82,1701c0,1.61-.72,2.95-2.51,2.95s-2.44-1.41-2.44-2.93.79-2.82,2.51-2.82c1.61,0,2.44,1.21,2.44,2.79ZM1122.91,1701.01c0,1.26.5,2.11,1.46,2.11s1.41-.84,1.41-2.12c0-1.18-.48-1.96-1.45-1.96s-1.43.8-1.43,1.97Z"/>
      <path class="cls-7" d="M1128,1703.85v-7.92h1.01v7.92h-1.01Z"/>
      <path class="cls-7" d="M1131.22,1701.29c0,1.03.43,1.84,1.37,1.84.85,0,1.11-.58,1.21-.86h1c-.2.73-.76,1.69-2.24,1.69-1.74,0-2.36-1.33-2.36-2.88,0-1.36.67-2.86,2.41-2.86s2.27,1.35,2.27,2.65c0,.04,0,.38-.01.43h-3.65ZM1133.88,1700.57c-.03-.88-.38-1.56-1.3-1.56-1.04,0-1.29.93-1.34,1.56h2.64Z"/>
      <path class="cls-7" d="M1143.11,1695.93v6.45c0,.55,0,1.12.02,1.46h-.99c-.02-.15-.04-.49-.04-.78-.28.61-.73.89-1.63.89-1.43,0-2.14-1.2-2.14-2.86s.84-2.89,2.34-2.89c.88,0,1.29.34,1.43.63v-2.91h1.01ZM1139.37,1701.05c0,1.29.54,2.05,1.39,2.05,1.14,0,1.38-.85,1.38-2.11,0-1.47-.4-1.92-1.32-1.92s-1.45.71-1.45,1.99Z"/>
      <path class="cls-7" d="M1145.35,1701.29c0,1.03.43,1.84,1.37,1.84.85,0,1.11-.58,1.21-.86h1c-.2.73-.76,1.69-2.24,1.69-1.74,0-2.36-1.33-2.36-2.88,0-1.36.67-2.86,2.41-2.86s2.27,1.35,2.27,2.65c0,.04,0,.38-.01.43h-3.65ZM1148.01,1700.57c-.03-.88-.38-1.56-1.3-1.56-1.04,0-1.29.93-1.34,1.56h2.64Z"/>
      <path class="cls-7" d="M1152.84,1703.85v-7.92h1.01v7.92h-1.01Z"/>
      <path class="cls-7" d="M1159.34,1702.58c0,.38.03.96.08,1.27h-.91c-.04-.19-.08-.49-.08-.82-.22.54-.77.92-1.65.92-1.36,0-1.78-.9-1.78-1.68,0-.86.57-1.77,2.54-1.77h.81v-.51c0-.51-.15-1.02-1.03-1.02-.77,0-1.03.36-1.11.93h-.99c.08-.92.61-1.7,2.13-1.7,1.19,0,2,.46,2,1.74v2.63ZM1158.38,1701.21h-.84c-1.27,0-1.51.52-1.51,1,0,.51.31.93.98.93,1.05,0,1.37-.7,1.37-1.81v-.11Z"/>
      <path class="cls-7" d="M1169.27,1703.85h-.8c-.04-.22-.07-.54-.09-1.04-.39.84-1.13,1.15-2.18,1.15-1.96,0-2.93-1.67-2.93-3.82s1.15-3.89,3.26-3.89c1.63,0,2.53.88,2.74,2.19h-1.03c-.21-.75-.68-1.31-1.77-1.31-1.5,0-2.13,1.35-2.13,3.02,0,1.57.6,2.95,2.04,2.95,1.52,0,1.84-1.05,1.84-2.35v-.04h-1.87v-.91h2.9v4.07Z"/>
      <path class="cls-7" d="M1170.67,1703.86v-1.54h.99v1.54h-.99Z"/>
      <path class="cls-7" d="M1173.92,1700.5v3.35h-1.03v-7.5h2.73c1.34,0,2.29.67,2.29,1.95,0,1.07-.62,1.55-1.22,1.75.78.26,1.1.87,1.1,1.87v.15c0,.69.02,1.34.1,1.77h-1.02c-.1-.3-.13-.96-.13-1.77v-.16c0-1.02-.37-1.42-1.56-1.42h-1.25ZM1173.92,1699.65h1.34c.93,0,1.59-.26,1.59-1.27,0-.78-.53-1.17-1.37-1.17h-1.56v2.44Z"/>
      <path class="cls-7" d="M1179.08,1703.86v-1.54h.99v1.54h-.99Z"/>
      <path class="cls-7" d="M1186.61,1701.64c-.22,1.21-1.01,2.32-2.81,2.32-2.23,0-3.06-1.68-3.06-3.9,0-2,.98-3.81,3.12-3.81,1.78,0,2.58,1.09,2.71,2.34h-1.04c-.18-.83-.61-1.47-1.71-1.47-1.43,0-2,1.4-2,2.94s.46,3.03,2.01,3.03c1.09,0,1.53-.67,1.74-1.46h1.04Z"/>
      <path class="cls-7" d="M1187.71,1703.86v-1.54h.99v1.54h-.99Z"/>
      <path class="cls-7" d="M1104.43,1707.63h4.47v.88h-3.44v2.37h3.23v.87h-3.23v3.36h-1.03v-7.5Z"/>
      <path class="cls-7" d="M1114.59,1712.27c0,1.61-.72,2.95-2.51,2.95s-2.44-1.41-2.44-2.93.79-2.82,2.51-2.82c1.61,0,2.44,1.21,2.44,2.79ZM1110.68,1712.29c0,1.26.5,2.11,1.46,2.11s1.41-.84,1.41-2.12c0-1.18-.48-1.96-1.45-1.96s-1.43.8-1.43,1.97Z"/>
      <path class="cls-7" d="M1115.78,1711.47c0-.89,0-1.58-.02-1.88h.99c.02.26.03.61.03,1.09.25-.64.83-1.18,1.77-1.19v1.04c-1.22.03-1.75.7-1.75,1.91v2.68h-1.01v-3.66Z"/>
      <path class="cls-7" d="M1119.4,1711.32c0-1.01-.01-1.47-.02-1.72h.99c.02.16.04.57.04.76.26-.47.75-.87,1.55-.87.74,0,1.2.34,1.41.94.24-.49.81-.94,1.64-.94s1.68.44,1.68,1.9v3.75h-1v-3.58c0-.64-.21-1.2-.97-1.2-.83,0-1.17.67-1.17,1.55v3.23h-.99v-3.63c0-.65-.27-1.15-.96-1.15-.75,0-1.2.56-1.2,1.63v3.14h-1v-3.81Z"/>
      <path class="cls-7" d="M1132.12,1713.86c0,.38.03.96.08,1.27h-.91c-.04-.19-.08-.49-.08-.82-.22.54-.77.92-1.65.92-1.36,0-1.78-.9-1.78-1.68,0-.86.57-1.77,2.54-1.77h.81v-.51c0-.51-.15-1.02-1.03-1.02-.77,0-1.03.36-1.11.93h-.99c.08-.92.61-1.7,2.13-1.7,1.19,0,2,.46,2,1.74v2.63ZM1131.16,1712.49h-.84c-1.27,0-1.51.52-1.51,1,0,.51.31.93.98.93,1.04,0,1.37-.7,1.37-1.81v-.11ZM1131.94,1707.01l-1.47,1.63h-.95l1.2-1.63h1.22Z"/>
      <path class="cls-7" d="M1132.86,1709.59h.87v-1.59h1.01v1.59h1.09v.82h-1.09v3.34c0,.45.11.63.58.63.15,0,.28-.01.41-.03v.74c-.23.08-.56.1-.76.1-.86,0-1.24-.33-1.24-1.27v-3.51h-.87v-.82Z"/>
      <path class="cls-7" d="M1136.77,1707.21h1.01v1.21h-1.01v-1.21ZM1136.77,1709.59h1.01v5.54h-1.01v-5.54Z"/>
      <path class="cls-7" d="M1143.9,1712.27c0,1.61-.72,2.95-2.51,2.95s-2.44-1.41-2.44-2.93.79-2.82,2.51-2.82c1.61,0,2.44,1.21,2.44,2.79ZM1139.99,1712.29c0,1.26.5,2.11,1.46,2.11s1.41-.84,1.41-2.12c0-1.18-.48-1.96-1.45-1.96s-1.43.8-1.43,1.97Z"/>
      <path class="cls-7" d="M1145.09,1711.33c0-1.15-.01-1.49-.02-1.73h.99c.02.1.04.6.04.84.23-.48.73-.95,1.61-.95,1.05,0,1.76.61,1.76,2.06v3.58h-1.02v-3.42c0-.77-.25-1.36-1.05-1.36-.92,0-1.3.67-1.3,1.79v2.98h-1.01v-3.8Z"/>
      <path class="cls-7" d="M1157.61,1713.86c0,.38.03.96.08,1.27h-.91c-.04-.19-.08-.49-.08-.82-.22.54-.77.92-1.65.92-1.36,0-1.78-.9-1.78-1.68,0-.86.57-1.77,2.54-1.77h.81v-.51c0-.51-.15-1.02-1.03-1.02-.77,0-1.03.36-1.11.93h-.99c.08-.92.61-1.7,2.13-1.7,1.19,0,2,.46,2,1.74v2.63ZM1156.65,1712.49h-.84c-1.27,0-1.51.52-1.51,1,0,.51.31.93.98.93,1.04,0,1.37-.7,1.37-1.81v-.11Z"/>
      <path class="cls-7" d="M1163.39,1713.55c0,.71.01,1.31.02,1.58h-.98c-.03-.16-.04-.47-.05-.84-.27.59-.82.94-1.6.94-.91,0-1.7-.47-1.7-1.91v-3.72h1.01v3.53c0,.69.22,1.24,1.02,1.24s1.26-.5,1.26-1.67v-3.09h1.02v3.96Z"/>
      <path class="cls-7" d="M1166.85,1709.59h.87v-1.59h1.01v1.59h1.09v.82h-1.09v3.34c0,.45.11.63.58.63.15,0,.28-.01.41-.03v.74c-.23.08-.56.1-.76.1-.86,0-1.24-.33-1.24-1.27v-3.51h-.87v-.82Z"/>
      <path class="cls-7" d="M1170.76,1707.21h1.01v1.21h-1.01v-1.21ZM1170.76,1709.59h1.01v5.54h-1.01v-5.54Z"/>
      <path class="cls-7" d="M1173.32,1711.47c0-.89,0-1.58-.02-1.88h.99c.02.26.03.61.03,1.09.25-.64.83-1.18,1.77-1.19v1.04c-1.22.03-1.75.7-1.75,1.91v2.68h-1.01v-3.66Z"/>
    </g>
    <g>
      <path class="cls-7" d="M1096.32,1641.75h2.48c1.96,0,3.38,1.25,3.38,3.57,0,2.45-1.28,3.92-3.49,3.92h-2.36v-7.5ZM1097.37,1648.4h1.28c1.64,0,2.44-1.14,2.44-3.05,0-1.75-.94-2.74-2.43-2.74h-1.29v5.79Z"/>
      <path class="cls-7" d="M1104.16,1646.68c0,1.03.43,1.84,1.37,1.84.85,0,1.11-.58,1.21-.86h1c-.2.73-.76,1.69-2.24,1.69-1.74,0-2.36-1.33-2.36-2.88,0-1.36.67-2.86,2.41-2.86s2.27,1.35,2.27,2.65c0,.04,0,.38,0,.43h-3.65ZM1106.82,1645.96c-.03-.88-.38-1.56-1.3-1.56-1.04,0-1.29.93-1.34,1.56h2.64Z"/>
      <path class="cls-7" d="M1109.43,1643.71c.71,2.26,1.18,3.77,1.35,4.57h.01c.12-.69.98-3.21,1.4-4.57h1l-1.9,5.54h-1.1l-1.84-5.54h1.08Z"/>
      <path class="cls-7" d="M1114.69,1646.68c0,1.03.43,1.84,1.37,1.84.85,0,1.11-.58,1.21-.86h1c-.2.73-.76,1.69-2.24,1.69-1.74,0-2.36-1.33-2.36-2.88,0-1.36.67-2.86,2.41-2.86s2.27,1.35,2.27,2.65c0,.04,0,.38-.01.43h-3.65ZM1117.35,1645.96c-.03-.88-.38-1.56-1.3-1.56-1.04,0-1.29.93-1.34,1.56h2.64Z"/>
      <path class="cls-7" d="M1119.54,1649.25v-7.92h1.01v7.92h-1.01Z"/>
      <path class="cls-7" d="M1126.68,1646.39c0,1.61-.72,2.95-2.51,2.95s-2.44-1.41-2.44-2.93.79-2.82,2.51-2.82c1.61,0,2.44,1.21,2.44,2.79ZM1122.77,1646.4c0,1.26.5,2.11,1.46,2.11s1.41-.84,1.41-2.12c0-1.18-.48-1.96-1.45-1.96s-1.43.8-1.43,1.97Z"/>
      <path class="cls-7" d="M1128.87,1648.62v2.81h-1.01v-6.09c0-.76,0-1.28-.02-1.63h.99c.02.19.03.56.03.86.26-.53.78-.97,1.7-.97,1.19,0,2.07.94,2.07,2.79s-1,2.94-2.3,2.94c-.78,0-1.24-.31-1.47-.72ZM1131.6,1646.42c0-1.3-.52-1.96-1.37-1.96-1.09,0-1.41.73-1.41,2.03,0,1.19.24,1.99,1.36,1.99.9,0,1.42-.74,1.42-2.07Z"/>
      <path class="cls-7" d="M1134.5,1646.68c0,1.03.43,1.84,1.37,1.84.85,0,1.11-.58,1.21-.86h1c-.2.73-.76,1.69-2.24,1.69-1.74,0-2.36-1.33-2.36-2.88,0-1.36.67-2.86,2.41-2.86s2.27,1.35,2.27,2.65c0,.04,0,.38,0,.43h-3.65ZM1137.16,1645.96c-.03-.88-.38-1.56-1.3-1.56-1.04,0-1.29.93-1.34,1.56h2.64Z"/>
      <path class="cls-7" d="M1143.77,1641.33v6.45c0,.55,0,1.12.02,1.46h-.99c-.02-.15-.04-.49-.04-.79-.28.61-.73.89-1.63.89-1.43,0-2.14-1.2-2.14-2.86s.84-2.89,2.34-2.89c.88,0,1.29.34,1.43.63v-2.9h1.01ZM1140.04,1646.45c0,1.29.54,2.05,1.39,2.05,1.14,0,1.38-.85,1.38-2.11,0-1.47-.4-1.92-1.32-1.92s-1.45.71-1.45,1.99Z"/>
      <path class="cls-7" d="M1148.09,1641.33h1.01v3.12c.24-.43.73-.85,1.63-.85,1.36,0,2.13,1.13,2.13,2.7,0,1.7-.73,3.04-2.3,3.04-.84,0-1.27-.36-1.47-.77,0,.22-.02.45-.04.67h-.98c.01-.32.02-.93.02-1.59v-6.33ZM1151.83,1646.35c0-1.12-.44-1.88-1.37-1.88-1.05,0-1.42.68-1.42,1.95s.31,2.07,1.4,2.07c.95,0,1.39-.88,1.39-2.14Z"/>
      <path class="cls-7" d="M1154.52,1643.71c.82,2.62,1.25,3.95,1.38,4.61h.01c.16-.62.66-2.36,1.36-4.61h1.03l-1.93,5.78c-.57,1.7-1.07,2.02-2.04,2.02-.11,0-.35-.02-.49-.04v-.86c.13.02.34.03.48.03.63,0,.84-.49,1.08-1.22l-1.97-5.72h1.08Z"/>
      <path class="cls-7" d="M1159.38,1645.31v-1.53h.99v1.53h-.99ZM1159.38,1649.25v-1.54h.99v1.54h-.99Z"/>
      <path class="cls-7" d="M1097.36,1657.17v3.35h-1.03v-7.5h2.73c1.34,0,2.29.66,2.29,1.95,0,1.07-.62,1.56-1.22,1.75.78.26,1.1.87,1.1,1.87v.15c0,.69.02,1.34.1,1.77h-1.02c-.1-.3-.13-.96-.13-1.77v-.16c0-1.02-.37-1.42-1.56-1.42h-1.25ZM1097.36,1656.32h1.34c.93,0,1.59-.26,1.59-1.27,0-.78-.53-1.17-1.37-1.17h-1.56v2.44Z"/>
      <path class="cls-7" d="M1108.31,1658.31c-.22,1.21-1.01,2.32-2.81,2.32-2.23,0-3.06-1.68-3.06-3.9,0-2,.98-3.81,3.12-3.81,1.78,0,2.58,1.09,2.71,2.34h-1.04c-.18-.83-.61-1.47-1.71-1.47-1.43,0-2,1.4-2,2.94s.46,3.03,2.01,3.03c1.09,0,1.53-.67,1.74-1.46h1.04Z"/>
      <path class="cls-7" d="M1115.73,1657.41c0-1.36.02-2.81.05-3.61h-.04c-.35,1.39-1.43,4.59-2.18,6.73h-.95c-.56-1.8-1.67-5.3-2.02-6.75h-.04c.06.87.09,2.53.09,3.82v2.93h-.98v-7.5h1.57c.73,2.13,1.68,5.11,1.93,6.16h.02c.15-.77,1.29-4.01,2.06-6.16h1.52v7.5h-1.02v-3.12Z"/>
      <path class="cls-7" d="M1118.61,1653.03h2.56c1.4,0,2.47.72,2.47,2.11,0,1.49-1.06,2.23-2.59,2.23h-1.39v3.16h-1.05v-7.5ZM1119.65,1656.51h1.34c.94,0,1.57-.33,1.57-1.35,0-.88-.63-1.27-1.55-1.27h-1.36v2.63Z"/>
      <path class="cls-7" d="M1129.13,1653.92h-2.16v-.89h5.38v.89h-2.17v6.61h-1.05v-6.61Z"/>
      <path class="cls-7" d="M1132.34,1656.87c0-.89,0-1.58-.02-1.88h.99c.02.26.03.61.03,1.09.25-.64.83-1.18,1.77-1.19v1.04c-1.22.03-1.75.7-1.75,1.91v2.68h-1.01v-3.66Z"/>
      <path class="cls-7" d="M1139.84,1659.26c0,.38.03.96.08,1.27h-.91c-.04-.19-.08-.49-.08-.82-.22.54-.77.92-1.65.92-1.36,0-1.78-.9-1.78-1.68,0-.87.57-1.77,2.54-1.77h.81v-.51c0-.51-.15-1.02-1.03-1.02-.77,0-1.03.36-1.11.93h-.99c.08-.92.61-1.7,2.13-1.7,1.19,0,2,.46,2,1.74v2.63ZM1138.88,1657.88h-.84c-1.27,0-1.51.52-1.51,1,0,.51.31.93.98.93,1.04,0,1.37-.7,1.37-1.81v-.11Z"/>
      <path class="cls-7" d="M1141.39,1652.61h1.01v1.21h-1.01v-1.21ZM1141.39,1654.99h1.01v5.54h-1.01v-5.54Z"/>
      <path class="cls-7" d="M1143.95,1656.72c0-1.15-.01-1.49-.02-1.73h.99c.02.1.04.6.04.84.23-.48.73-.95,1.61-.95,1.05,0,1.76.61,1.76,2.06v3.58h-1.02v-3.42c0-.77-.25-1.36-1.05-1.36-.92,0-1.3.67-1.3,1.79v2.98h-1.01v-3.8Z"/>
      <path class="cls-7" d="M1149.87,1652.61h1.01v1.21h-1.01v-1.21ZM1149.87,1654.99h1.01v5.54h-1.01v-5.54Z"/>
      <path class="cls-7" d="M1152.43,1656.72c0-1.15-.01-1.49-.02-1.73h.99c.02.1.04.6.04.84.23-.48.73-.95,1.61-.95,1.05,0,1.76.61,1.76,2.06v3.58h-1.02v-3.42c0-.77-.25-1.36-1.05-1.36-.92,0-1.3.67-1.3,1.79v2.98h-1.01v-3.8Z"/>
      <path class="cls-7" d="M1162.73,1660.08c0,1.72-.69,2.71-2.42,2.71s-2.15-.89-2.22-1.68h1c.12.58.59.87,1.27.87,1.14,0,1.39-.73,1.39-1.9v-.43c-.28.6-.78.87-1.6.87-1.31,0-2.15-1.08-2.15-2.79s1.01-2.85,2.28-2.85c.87,0,1.31.35,1.45.75,0-.22.03-.52.05-.64h.99c-.01.26-.02.86-.02,1.62v3.47ZM1159.04,1657.71c0,1.23.52,1.94,1.36,1.94,1.01,0,1.37-.62,1.37-1.97s-.27-1.94-1.32-1.94c-.87,0-1.41.71-1.41,1.97Z"/>
      <path class="cls-7" d="M1167.99,1658.34l-.69,2.19h-1.04c.44-1.32,1.91-6,2.41-7.5h1.33l2.52,7.5h-1.11l-.72-2.19h-2.7ZM1170.45,1657.45c-.6-1.85-.99-2.96-1.14-3.58h-.02c-.2.87-.58,2.03-1.08,3.58h2.23Z"/>
      <path class="cls-7" d="M1177.77,1658.73c-.21,1.09-.9,1.9-2.26,1.9-1.58,0-2.37-1.03-2.37-2.88,0-1.63.84-2.87,2.43-2.87s2.13,1.07,2.19,1.96h-1.02c-.1-.6-.42-1.14-1.2-1.14-.96,0-1.37.85-1.37,2.03,0,1.39.49,2.09,1.36,2.09.74,0,1.04-.46,1.22-1.09h1.01Z"/>
      <path class="cls-7" d="M1182.89,1659.26c0,.38.03.96.08,1.27h-.91c-.04-.19-.08-.49-.08-.82-.22.54-.77.92-1.65.92-1.36,0-1.78-.9-1.78-1.68,0-.87.57-1.77,2.54-1.77h.81v-.51c0-.51-.15-1.02-1.03-1.02-.77,0-1.03.36-1.11.93h-.99c.08-.92.61-1.7,2.13-1.7,1.19,0,2,.46,2,1.74v2.63ZM1181.92,1657.88h-.84c-1.27,0-1.51.52-1.51,1,0,.51.31.93.98.93,1.04,0,1.37-.7,1.37-1.81v-.11Z"/>
      <path class="cls-7" d="M1188.83,1652.61v6.45c0,.55,0,1.12.02,1.46h-.99c-.02-.15-.04-.49-.04-.79-.28.61-.73.89-1.63.89-1.43,0-2.14-1.2-2.14-2.86s.84-2.89,2.34-2.89c.88,0,1.29.34,1.43.63v-2.9h1.01ZM1185.09,1657.73c0,1.29.54,2.05,1.39,2.05,1.14,0,1.38-.85,1.38-2.11,0-1.47-.4-1.92-1.32-1.92s-1.45.71-1.45,1.99Z"/>
      <path class="cls-7" d="M1191.07,1657.96c0,1.03.43,1.84,1.37,1.84.85,0,1.11-.58,1.21-.86h1c-.2.73-.76,1.69-2.24,1.69-1.74,0-2.36-1.33-2.36-2.88,0-1.36.67-2.86,2.41-2.86s2.27,1.35,2.27,2.65c0,.04,0,.38,0,.43h-3.65ZM1193.73,1657.24c-.03-.88-.38-1.56-1.3-1.56-1.04,0-1.29.93-1.34,1.56h2.64Z"/>
      <path class="cls-7" d="M1195.89,1656.71c0-1-.01-1.47-.02-1.72h.99c.02.16.04.57.04.76.26-.47.75-.87,1.55-.87.74,0,1.2.34,1.41.94.24-.49.81-.94,1.64-.94s1.68.44,1.68,1.9v3.75h-1v-3.58c0-.64-.21-1.2-.97-1.2-.83,0-1.17.67-1.17,1.55v3.23h-.99v-3.63c0-.65-.27-1.15-.96-1.15-.75,0-1.2.56-1.2,1.63v3.14h-1v-3.81Z"/>
      <path class="cls-7" d="M1205.02,1654.99c.82,2.62,1.25,3.95,1.38,4.61h.01c.16-.62.66-2.36,1.36-4.61h1.03l-1.93,5.78c-.57,1.7-1.07,2.02-2.04,2.02-.11,0-.35-.02-.49-.04v-.86c.13.02.34.03.48.03.63,0,.84-.49,1.08-1.22l-1.97-5.72h1.08Z"/>
      <path class="cls-7" d="M1096.32,1664.31h4.47v.88h-3.44v2.37h3.23v.88h-3.23v3.36h-1.03v-7.5Z"/>
      <path class="cls-7" d="M1101.88,1663.89h1.01v1.21h-1.01v-1.21ZM1101.88,1666.27h1.01v5.54h-1.01v-5.54Z"/>
      <path class="cls-7" d="M1104.44,1668.15c0-.89,0-1.58-.02-1.88h.99c.02.26.03.61.03,1.09.25-.64.83-1.18,1.77-1.19v1.04c-1.22.03-1.75.7-1.75,1.91v2.68h-1.01v-3.66Z"/>
      <path class="cls-7" d="M1108.72,1669.24c0,1.03.43,1.84,1.37,1.84.85,0,1.11-.58,1.21-.86h1c-.2.73-.76,1.69-2.24,1.69-1.74,0-2.36-1.33-2.36-2.88,0-1.36.67-2.86,2.41-2.86s2.27,1.35,2.27,2.65c0,.04,0,.38,0,.43h-3.65ZM1111.38,1668.52c-.03-.88-.38-1.56-1.3-1.56-1.04,0-1.29.93-1.34,1.56h2.64Z"/>
      <path class="cls-7" d="M1117.51,1670.54c0,.38.03.96.08,1.27h-.91c-.04-.19-.08-.49-.08-.82-.22.54-.77.92-1.65.92-1.36,0-1.78-.9-1.78-1.68,0-.87.57-1.77,2.54-1.77h.81v-.51c0-.51-.15-1.02-1.03-1.02-.77,0-1.03.36-1.11.93h-.99c.08-.92.61-1.7,2.13-1.7,1.19,0,2,.46,2,1.74v2.63ZM1116.54,1669.16h-.84c-1.27,0-1.51.52-1.51,1,0,.51.31.93.98.93,1.04,0,1.37-.7,1.37-1.81v-.11Z"/>
      <path class="cls-7" d="M1119.05,1668.15c0-.89,0-1.58-.02-1.88h.99c.02.26.03.61.03,1.09.25-.64.83-1.18,1.77-1.19v1.04c-1.22.03-1.75.7-1.75,1.91v2.68h-1.01v-3.66Z"/>
      <path class="cls-7" d="M1122.67,1667.99c0-1-.01-1.47-.02-1.72h.99c.02.16.04.57.04.76.26-.47.75-.87,1.55-.87.74,0,1.2.34,1.41.94.24-.49.81-.94,1.64-.94s1.68.44,1.68,1.9v3.75h-1v-3.58c0-.64-.21-1.2-.97-1.2-.83,0-1.17.67-1.17,1.55v3.23h-.99v-3.63c0-.65-.27-1.15-.96-1.15-.75,0-1.2.56-1.2,1.63v3.14h-1v-3.81Z"/>
      <path class="cls-7" d="M1131.97,1670.18c.1.61.54.94,1.19.94.72,0,1.01-.37,1.01-.82,0-.47-.34-.71-1.27-.96-1.37-.38-1.73-.87-1.73-1.62s.49-1.57,1.9-1.57,1.9.74,1.97,1.61h-.99c-.08-.42-.3-.84-1.03-.84-.58,0-.86.28-.86.71,0,.39.21.6,1.12.84,1.43.38,1.88.87,1.88,1.75,0,1.05-.84,1.68-2.05,1.68s-2.04-.55-2.15-1.72h1Z"/>
      <path class="cls-7" d="M1140.47,1665.2h-2.16v-.89h5.38v.89h-2.17v6.61h-1.05v-6.61Z"/>
      <path class="cls-7" d="M1143.68,1668.15c0-.89,0-1.58-.02-1.88h.99c.02.26.03.61.03,1.09.25-.64.83-1.18,1.77-1.19v1.04c-1.22.03-1.75.7-1.75,1.91v2.68h-1.01v-3.66Z"/>
      <path class="cls-7" d="M1151.19,1670.54c0,.38.03.96.08,1.27h-.91c-.04-.19-.08-.49-.08-.82-.22.54-.77.92-1.65.92-1.36,0-1.78-.9-1.78-1.68,0-.87.57-1.77,2.54-1.77h.81v-.51c0-.51-.15-1.02-1.03-1.02-.77,0-1.03.36-1.11.93h-.99c.08-.92.61-1.7,2.13-1.7,1.19,0,2,.46,2,1.74v2.63ZM1150.22,1669.16h-.84c-1.27,0-1.51.52-1.51,1,0,.51.31.93.98.93,1.04,0,1.37-.7,1.37-1.81v-.11Z"/>
      <path class="cls-7" d="M1152.73,1663.89h1.01v1.21h-1.01v-1.21ZM1152.73,1666.27h1.01v5.54h-1.01v-5.54Z"/>
      <path class="cls-7" d="M1155.29,1668c0-1.15-.01-1.49-.02-1.73h.99c.02.1.04.6.04.84.23-.48.73-.95,1.61-.95,1.05,0,1.76.61,1.76,2.06v3.58h-1.02v-3.42c0-.77-.25-1.36-1.05-1.36-.92,0-1.3.67-1.3,1.79v2.98h-1.01v-3.8Z"/>
      <path class="cls-7" d="M1161.22,1663.89h1.01v1.21h-1.01v-1.21ZM1161.22,1666.27h1.01v5.54h-1.01v-5.54Z"/>
      <path class="cls-7" d="M1163.77,1668c0-1.15-.01-1.49-.02-1.73h.99c.02.1.04.6.04.84.23-.48.73-.95,1.61-.95,1.05,0,1.76.61,1.76,2.06v3.58h-1.02v-3.42c0-.77-.25-1.36-1.05-1.36-.92,0-1.3.67-1.3,1.79v2.98h-1.01v-3.8Z"/>
      <path class="cls-7" d="M1174.07,1671.36c0,1.72-.69,2.71-2.42,2.71s-2.15-.89-2.22-1.68h1c.12.58.59.87,1.27.87,1.14,0,1.39-.73,1.39-1.9v-.43c-.28.6-.78.87-1.6.87-1.31,0-2.15-1.08-2.15-2.79s1.01-2.85,2.28-2.85c.87,0,1.31.35,1.45.75,0-.22.03-.52.05-.64h.99c-.01.26-.02.86-.02,1.62v3.47ZM1170.38,1668.99c0,1.23.52,1.94,1.36,1.94,1.01,0,1.37-.62,1.37-1.97s-.27-1.94-1.32-1.94c-.87,0-1.41.71-1.41,1.97Z"/>
    </g>
  </g>
  <g>
    <path class="cls-7" d="M1137.74,1052.83c-13.11,232.86-68.56,710.68-68.56,710.68H188.95s-55.44-477.82-68.56-710.68c-13.1-232.87,43.36-319.56,170.37-360.9,99.15-32.25,168.82-41.19,198.93-60.32,1.02-.65,1.99-1.31,2.92-1.99,6.79-4.9,11.12-10.51,12.87-17.31,3.4-13.23,3.49-32.59,2.28-51.62-2.03-31.9-9.31-63.23-20.96-93-15.62-39.93-38.74-114.13-33.06-192.64,1.08-15.06,4.08-30,9.4-44.15,5.77-15.28,14.26-29.47,25.07-41.72,10-11.33,21.86-20.94,34.83-28.68,12.28-7.35,25.5-13.07,39.18-17.22,38.66-11.75,85.34-12.28,124.42-2.56,13.78,3.42,27.2,8.4,39.82,14.96,13.37,6.95,25.83,15.73,36.61,26.29,11.53,11.3,21.01,24.6,27.83,39.24,7.88,16.9,12.16,35.28,13.49,53.84,5.68,78.5-17.44,152.71-33.06,192.64-11.65,29.77-18.93,61.1-20.96,93-1.21,19.03-1.12,38.39,2.28,51.62,1.78,6.94,6.27,12.64,13.28,17.6.94.68,1.92,1.34,2.95,1.98,30.35,18.96,99.82,27.95,198.49,60.05,127.01,41.34,183.47,128.03,170.37,360.9Z"/>
    <path class="cls-6" d="M862.85,720.27c-33.92-42.75-93.4-60.82-144.88-70.3-65.46-12.05-133.5-10.89-198.35,4.28-44.95,10.51-94.69,28.63-124.35,66.02-58.56,73.79-67.89,115.6-65.19,341.4,2.69,225.81,45.03,285.62,157.93,320.9,46.67,14.59,97.29,18.82,140.64,18.8.14,0,.28,0,.42,0,.14,0,.28,0,.42,0,43.35.02,93.97-4.21,140.64-18.8,112.89-35.28,155.23-95.09,157.93-320.9,2.69-225.8-6.63-267.61-65.19-341.4Z"/>
    <path class="cls-10" d="M627.81,1325.42c-42.53-.05-80.82-5.27-110.76-15.11-45.8-15.06-55.7-28.63-63.16-43.54-16.67-33.33-25.32-97.92-26.45-197.45-1.16-102.55-.26-174.91,7.84-218.72,4.67-25.25,11.02-52.34,27.53-72.74,19.96-24.68,53.38-33.43,83.3-38.49,43.36-7.34,88.67-9.59,132.88-5.27,38.5,3.76,83.42,9.9,112.43,38.13,21.35,20.79,26.26,50.5,31.41,78.37,8.1,43.81,9.01,116.17,7.84,218.72-1.13,99.53-9.78,164.12-26.45,197.45-7.46,14.91-17.36,28.49-63.16,43.54-30.07,9.89-68.54,15.11-111.25,15.11,0,0-1.86,0-1.86,0h-.15Z"/>
    <path class="cls-10" d="M723.99,651.12c-.29-1.16-.59-2.28-.88-3.44-6.65-26.73-13.18-72.13-3.39-130.37,16.13-96.09,59.14-121.64,35.62-232.52-9.58-45.14-32.77-88.23-79.08-103.21-45.46-14.7-105.33-8.34-138.86,28.37-18.87,20.65-28.88,47.86-34.6,74.84-23.52,110.88,19.49,136.43,35.62,232.52,10.21,60.81,2.65,107.63-4.28,133.81,0,0-5.76,65.81-53.31,109.8,2.71-1.4,5.43-2.79,8.1-4.26,4.8-2.63,9.44-4.79,14.75-6.17,3.23-.84,6.4-1.85,9.59-2.79,12.98-4.64,26.69-7.58,39.76-9.8,43.36-7.33,88.67-9.58,132.88-5.26,29.29,2.86,66.01,14.94,92.89,29.25-17.34-22.2-43.52-65.51-54.81-110.79Z"/>
    <path class="cls-9" d="M470.88,770.86c-.41,0-.83-.17-1.13-.5-.56-.62-.52-1.58.11-2.15,21.03-19.06,51.67-26.23,76.01-30.35,45.53-7.7,90.37-9.48,133.29-5.29,36.87,3.6,78.62,9.46,107.63,33.43.65.53.74,1.49.2,2.14-.53.65-1.49.74-2.14.2-28.34-23.43-69.57-29.19-105.99-32.75-42.64-4.17-87.21-2.4-132.48,5.26-23.94,4.05-54.03,11.08-74.47,29.6-.29.26-.66.39-1.02.39Z"/>
    <path class="cls-9" d="M768.88,631.88l-44.68,20.83-.49-.11c-2.01-.38-4.02-.76-6.01-1.13-60.58-11.15-123.95-10.77-183.27,1.13l-.49.09-44.24-21.09c1.02-.65,1.99-1.31,2.92-1.99l41.72,19.9c59.55-11.87,123.13-12.23,183.91-1.03,1.84.33,3.7.68,5.55,1.05l42.13-19.63c.94.68,1.92,1.34,2.95,1.98Z"/>
    <rect class="cls-3" x="572.61" y="946.86" width="112.9" height="154.57" rx="56.45" ry="56.45"/>
  </g>
  <g>
    <g>
      <path class="cls-7" d="M149.15,359.37h-5.08v-2.54h13.22v2.54h-5.07v13.82h-3.08v-13.82Z"/>
      <path class="cls-7" d="M160.52,369.02l-1.44,4.17h-3.03l5.65-16.36h3.84l5.89,16.36h-3.24l-1.51-4.17h-6.17ZM166,366.48c-1.3-3.74-2.08-5.98-2.46-7.37h-.02c-.4,1.54-1.27,4.17-2.31,7.37h4.79Z"/>
      <path class="cls-7" d="M187.01,368.28c-.68,2.96-2.9,5.13-6.87,5.13-5.09,0-7.54-3.69-7.54-8.33s2.51-8.49,7.68-8.49c4.19,0,6.29,2.43,6.72,5.17h-3.07c-.43-1.44-1.41-2.73-3.75-2.73-3.15,0-4.4,2.85-4.4,5.94,0,2.92,1.12,5.99,4.49,5.99,2.38,0,3.24-1.51,3.65-2.68h3.09Z"/>
      <path class="cls-7" d="M193.45,359.37h-5.08v-2.54h13.22v2.54h-5.07v13.82h-3.08v-13.82Z"/>
      <path class="cls-7" d="M206.91,356.83v16.36h-3.07v-16.36h3.07Z"/>
      <path class="cls-7" d="M224.5,368.28c-.68,2.96-2.9,5.13-6.87,5.13-5.09,0-7.54-3.69-7.54-8.33s2.51-8.49,7.68-8.49c4.19,0,6.29,2.43,6.72,5.17h-3.07c-.43-1.44-1.41-2.73-3.75-2.73-3.15,0-4.4,2.85-4.4,5.94,0,2.92,1.12,5.99,4.49,5.99,2.38,0,3.24-1.51,3.65-2.68h3.08Z"/>
      <path class="cls-7" d="M230.13,369.02l-1.44,4.17h-3.03l5.65-16.36h3.84l5.89,16.36h-3.24l-1.51-4.17h-6.17ZM235.6,366.48c-1.3-3.74-2.08-5.98-2.46-7.37h-.02c-.4,1.54-1.27,4.17-2.31,7.37h4.79Z"/>
      <path class="cls-7" d="M243.29,356.83h3.07v13.82h8.28l-.37,2.54h-10.98v-16.36Z"/>
      <path class="cls-7" d="M147.33,387.75h-5.08v-2.54h13.22v2.54h-5.07v13.82h-3.08v-13.82Z"/>
      <path class="cls-7" d="M158.7,397.4l-1.44,4.17h-3.03l5.65-16.36h3.84l5.89,16.36h-3.24l-1.51-4.17h-6.17ZM164.18,394.86c-1.3-3.74-2.08-5.98-2.46-7.37h-.02c-.4,1.54-1.27,4.17-2.31,7.37h4.79Z"/>
      <path class="cls-7" d="M185.19,396.66c-.68,2.96-2.9,5.13-6.87,5.13-5.09,0-7.54-3.69-7.54-8.33s2.51-8.49,7.68-8.49c4.19,0,6.29,2.43,6.72,5.17h-3.07c-.43-1.44-1.41-2.73-3.75-2.73-3.15,0-4.4,2.85-4.4,5.94,0,2.92,1.12,5.99,4.49,5.99,2.38,0,3.24-1.51,3.65-2.68h3.08Z"/>
      <path class="cls-7" d="M191.63,387.75h-5.08v-2.54h13.22v2.54h-5.07v13.82h-3.08v-13.82Z"/>
      <path class="cls-7" d="M205.08,385.21v16.36h-3.07v-16.36h3.07Z"/>
      <path class="cls-7" d="M223.9,393.32c0,4.53-2.66,8.48-7.92,8.48s-7.71-3.73-7.71-8.42,2.89-8.42,7.93-8.42c4.72,0,7.7,3.39,7.7,8.35ZM211.45,393.32c0,3.31,1.54,5.96,4.65,5.96,3.37,0,4.62-2.8,4.62-5.92s-1.42-5.86-4.66-5.86-4.62,2.53-4.62,5.82ZM220.35,399.26l4.71,3.26-1.8,2.06-5.68-3.96,2.77-1.37Z"/>
      <path class="cls-7" d="M230.07,385.21v9.78c0,3.39,1.79,4.36,3.67,4.36,2.17,0,3.6-1.11,3.6-4.36v-9.78h3.08v9.63c0,5.5-3.16,6.95-6.72,6.95s-6.7-1.54-6.7-6.86v-9.72h3.08Z"/>
      <path class="cls-7" d="M255.24,394.31h-7.93v4.72h8.73l-.37,2.54h-11.35v-16.36h11.28v2.54h-8.29v4.02h7.93v2.54Z"/>
    </g>
    <g>
      <path class="cls-7" d="M196.69,281c-8.63,0-16.29-1.03-22.78-3.05-10.2-3.19-15.89-7.41-19.66-14.57-4.02-7.63-5.9-19.23-6.12-37.62-.43-35.96.96-43.2,10.61-55.36,3.97-5,10.61-8.54,20.3-10.8,10.36-2.42,21.49-2.66,32.18-.69,11.43,2.11,19.17,5.87,23.63,11.5h0c9.65,12.16,11.04,19.41,10.61,55.36-.22,18.38-2.11,29.98-6.12,37.62-3.77,7.16-9.46,11.38-19.66,14.57-6.48,2.03-14.14,3.05-22.76,3.05h-.11s-.05-.41-.05-.41l-.03.41h-.04ZM196.74,158.42c-5.93,0-11.84.66-17.51,1.99-9.5,2.22-15.99,5.66-19.84,10.51-9.49,11.96-10.86,19.14-10.43,54.84.22,18.24,2.08,29.73,6.03,37.24,3.65,6.94,9.21,11.05,19.17,14.16,6.4,2,13.98,3.02,22.53,3.02h.18s.04,0,.06,0c8.54,0,16.11-1.01,22.52-3.02,9.96-3.11,15.52-7.22,19.17-14.16,3.95-7.51,5.81-18.99,6.03-37.24.43-35.7-.94-42.87-10.43-54.84h0c-4.34-5.47-11.9-9.13-23.13-11.2-4.73-.87-9.54-1.3-14.34-1.3Z"/>
      <path class="cls-5" d="M228.08,191.7c-.83-4.5-1.62-9.29-5.07-12.65-.98-.95-2.02-1.78-2.9-2.84-1.13-1.35-1.96-2.87-2.83-4.4-1.3-2.25-2.45-4.59-3.41-7.01-.69-1.73-1.28-3.5-1.73-5.31-.05-.19-.1-.37-.14-.55-1.07-4.31-2.13-11.64-.55-21.04,2.6-15.51,9.54-19.63,5.75-37.53-1.55-7.29-5.29-14.24-12.76-16.66-7.34-2.37-17-1.35-22.41,4.58-3.04,3.33-4.66,7.73-5.58,12.08-3.8,17.9,3.15,22.02,5.75,37.53,1.65,9.81.43,17.37-.69,21.6-.13.48-.13,1.03-.22,1.53-.24,1.33-.56,2.65-.97,3.94-1.23,3.94-3.17,7.7-5.95,10.77-1.36,1.51-3.1,2.64-4.37,4.22-2.66,3.29-3.69,7.67-4.44,11.74-1.31,7.07-1.45,18.75-1.27,35.3.18,16.06,1.58,26.49,4.27,31.87,1.2,2.41,2.8,4.6,10.19,7.03,4.83,1.59,11.01,2.43,17.88,2.44h.02s.3,0,.3,0c6.89,0,13.1-.84,17.95-2.44,7.39-2.43,8.99-4.62,10.19-7.03,2.69-5.38,4.09-15.8,4.27-31.87.19-16.55.04-28.23-1.27-35.3Z"/>
      <path class="cls-7" d="M196.93,268.74h-.3c-6.93,0-13.16-.86-18.03-2.46-7.54-2.48-9.19-4.74-10.44-7.24-2.72-5.44-4.13-15.92-4.31-32.05-.19-16.58-.04-28.28,1.27-35.38.73-3.97,1.75-8.49,4.53-11.93.72-.89,1.59-1.65,2.42-2.38.67-.59,1.37-1.19,1.97-1.86,2.59-2.87,4.56-6.44,5.86-10.61.41-1.31.73-2.61.95-3.89.03-.19.06-.39.08-.59.03-.32.07-.65.15-.97,1.19-4.51,2.28-11.9.68-21.42-.9-5.38-2.3-9.3-3.65-13.09-2.46-6.89-4.58-12.84-2.09-24.6,1.12-5.3,2.98-9.32,5.68-12.27,5.85-6.41,15.94-6.93,22.85-4.69,8.38,2.71,11.72,10.72,13.04,16.97,2.49,11.76.37,17.71-2.09,24.6-1.35,3.79-2.75,7.7-3.65,13.09-1.55,9.22-.56,16.44.54,20.87l.14.55c.43,1.7,1,3.47,1.71,5.25.92,2.31,2.06,4.65,3.39,6.95l.31.54c.78,1.35,1.51,2.63,2.48,3.8.57.69,1.21,1.27,1.89,1.89.33.3.66.6.98.92,3.43,3.34,4.29,7.97,5.11,12.45l.08.42c1.31,7.1,1.46,18.8,1.27,35.38-.18,16.13-1.59,26.61-4.31,32.05-1.25,2.49-2.89,4.76-10.43,7.24-4.89,1.61-11.15,2.46-18.08,2.46ZM196.68,82.95c-5.21,0-10.68,1.59-14.37,5.63-2.6,2.84-4.39,6.73-5.48,11.88-2.45,11.53-.36,17.38,2.06,24.14,1.3,3.64,2.78,7.77,3.69,13.23,1.62,9.67.52,17.18-.7,21.77-.07.26-.1.54-.13.84-.02.22-.05.44-.08.65-.23,1.31-.56,2.65-.98,3.99-1.34,4.29-3.37,7.97-6.04,10.92-.63.7-1.35,1.32-2.04,1.92-.85.74-1.65,1.44-2.32,2.27-2.66,3.28-3.64,7.69-4.36,11.55-1.3,7.04-1.45,18.69-1.26,35.22.18,16,1.56,26.36,4.22,31.69,1.16,2.32,2.71,4.44,9.95,6.82,4.79,1.57,10.93,2.41,17.75,2.42h.32c6.85,0,13.01-.84,17.82-2.42,7.24-2.38,8.79-4.5,9.95-6.82,2.66-5.32,4.04-15.69,4.23-31.69.19-16.53.04-28.18-1.26-35.22l-.08-.42c-.8-4.35-1.63-8.85-4.87-12-.32-.31-.64-.6-.97-.9-.67-.61-1.36-1.24-1.97-1.97-1.02-1.22-1.81-2.59-2.57-3.92l-.31-.54c-1.35-2.33-2.5-4.71-3.44-7.06-.72-1.82-1.31-3.62-1.75-5.36l-.14-.56c-1.12-4.51-2.13-11.84-.55-21.21.92-5.45,2.39-9.58,3.69-13.23,2.42-6.77,4.51-12.62,2.06-24.14-1.28-6.03-4.49-13.76-12.49-16.35-2.27-.74-4.91-1.16-7.61-1.16Z"/>
      <path class="cls-2" d="M268.2,339.45H125.4l-.04-.37c-.09-.77-8.97-77.56-11.07-114.72-2-35.52,5.53-51.42,27.78-58.66,7.01-2.28,13.18-3.86,18.15-5.13,6.49-1.66,11.18-2.86,13.86-4.56.16-.1.31-.2.45-.31,1.04-.75,1.67-1.59,1.92-2.56,1.2-4.66-.23-14.34-.7-17.19-.1-.62-.29-1.22-.55-1.78-1.97-4.19-8.29-19.14-7.12-35.38.18-2.57.7-5.01,1.54-7.24.96-2.54,2.35-4.85,4.12-6.86,1.6-1.81,3.52-3.4,5.72-4.71,1.96-1.17,4.12-2.12,6.42-2.82,6.2-1.88,13.79-2.04,20.3-.42,2.3.57,4.49,1.39,6.52,2.45,2.27,1.18,4.29,2.63,6.01,4.31,1.92,1.88,3.46,4.05,4.58,6.45,1.24,2.66,1.98,5.63,2.22,8.84,1.18,16.24-5.15,31.19-7.12,35.38-.26.56-.45,1.16-.55,1.78-.47,2.85-1.89,12.53-.7,17.19.25.99.9,1.84,1.98,2.61.15.11.3.21.45.31,2.69,1.68,7.35,2.87,13.8,4.52,4.96,1.27,11.14,2.85,18.15,5.13,22.25,7.24,29.78,23.14,27.78,58.66-2.09,37.16-10.98,113.95-11.07,114.72l-.04.37ZM126.14,338.62h141.32c.67-5.83,9-78.49,11.02-114.31,1.97-35.06-5.4-50.73-27.21-57.83-6.98-2.27-13.14-3.85-18.1-5.11-6.52-1.67-11.23-2.87-14.03-4.62-.17-.11-.34-.22-.5-.34-1.24-.88-2-1.89-2.3-3.07-1.2-4.69.07-13.82.68-17.53.11-.7.32-1.37.62-2,1.94-4.15,8.2-18.93,7.04-34.97-.22-3.1-.94-5.98-2.14-8.54-1.08-2.31-2.56-4.4-4.41-6.21-1.66-1.63-3.61-3.03-5.81-4.17-1.97-1.02-4.1-1.82-6.33-2.38-6.38-1.59-13.8-1.43-19.86.41-2.23.68-4.33,1.6-6.23,2.74-2.12,1.27-3.98,2.8-5.52,4.55-1.71,1.94-3.05,4.16-3.97,6.61-.81,2.16-1.31,4.51-1.49,7.01-1.16,16.04,5.1,30.82,7.04,34.97.3.63.5,1.31.62,2,.61,3.71,1.89,12.84.68,17.53-.3,1.17-1.03,2.16-2.24,3.03-.15.11-.32.22-.49.33-2.79,1.77-7.54,2.99-14.11,4.67-4.95,1.27-11.11,2.84-18.1,5.11-21.81,7.1-29.18,22.77-27.21,57.83,2.02,35.82,10.35,108.48,11.02,114.31Z"/>
      <g>
        <path class="cls-9" d="M221.68,248.51h-2.93c-.05.61-.17,1.66-.21,2.08.26-.27.7-.45,1.35-.45,1.56,0,2.31,1.22,2.31,2.93,0,1.94-.62,3.53-2.86,3.53-1.79,0-2.59-1.09-2.64-2.63h1.69c.04.62.23,1.26,1,1.26.89,0,1.05-.83,1.05-1.93s-.21-1.78-1.05-1.78c-.64,0-.86.44-1.02.97l-1.56-.22c.18-1.15.45-3.96.53-5.23h4.52l-.19,1.47Z"/>
        <path class="cls-7" d="M225.96,262.48c0-1.23.56-2.66,2.57-2.66,1.69,0,2.46.95,2.46,2.42,0,1.16-.51,1.73-1.14,1.97v.03c.78.25,1.42.88,1.42,2.26,0,1.63-.63,3-2.81,3-1.79,0-2.6-1.04-2.64-2.6h1.65c.04.64.27,1.24,1.03,1.24.8,0,1.03-.6,1.03-1.61,0-1.07-.34-1.51-1.45-1.51h-.43v-1.4h.39c.88,0,1.22-.27,1.22-1.27,0-.7-.16-1.17-.86-1.17-.74,0-.87.72-.9,1.29h-1.57Z"/>
        <path class="cls-7" d="M234.25,280.59v-.1c.01-1.61.7-2.74,2.13-4.35,1.09-1.24,1.34-1.59,1.34-2.54,0-.71-.15-1.2-.85-1.2s-.92.6-.95,1.54h-1.65c.01-1.48.65-2.91,2.65-2.91,1.82,0,2.55,1.06,2.55,2.63,0,1.12-.28,1.73-1.49,3.01-.88.94-1.55,1.78-1.75,2.44h3.5l-.23,1.47h-5.25Z"/>
      </g>
    </g>
  </g>
  <g>
    <g>
      <path class="cls-7" d="M968.9,366.84c0-2.88.04-6,.11-7.81h-.1c-.75,3.11-2.73,9.11-4.41,14.24h-2.65c-1.27-4.38-3.33-11.17-4.05-14.28h-.1c.14,1.91.2,5.38.2,8.19v6.1h-2.82v-16.39h4.58c1.48,4.56,3.2,10.34,3.71,12.66h.03c.4-1.96,2.5-8.2,4.06-12.66h4.42v16.39h-2.97v-6.43Z"/>
      <path class="cls-7" d="M978.7,369.1l-1.44,4.17h-3.03l5.66-16.39h3.84l5.9,16.39h-3.24l-1.51-4.17h-6.18ZM984.19,366.55c-1.3-3.75-2.08-5.99-2.46-7.38h-.02c-.4,1.54-1.27,4.18-2.31,7.38h4.8Z"/>
      <path class="cls-7" d="M994.9,366.49v6.78h-3.01v-16.39h6.93c3.5,0,5.38,1.92,5.38,4.46,0,2.18-1.21,3.4-2.52,3.87.99.32,2.2,1.22,2.2,4.12v.77c0,1.11-.01,2.43.23,3.17h-2.93c-.29-.71-.32-1.95-.32-3.63v-.28c0-1.98-.52-2.88-3.27-2.88h-2.68ZM994.9,364.01h3.17c2.13,0,3-.81,3-2.34s-.96-2.3-2.86-2.3h-3.31v4.64Z"/>
      <path class="cls-7" d="M1007.52,356.89h3.04v7.56c1.13-1.26,4.77-5.1,7.02-7.56h3.72l-6.74,6.84,7.02,9.54h-3.7l-5.46-7.55-1.85,1.74v5.81h-3.04v-16.39Z"/>
      <path class="cls-7" d="M1025.32,368.55c.4,1.76,1.63,2.59,3.69,2.59s3-.9,3-2.22c0-1.44-.8-2.14-3.76-2.84-4.25-1.01-5.44-2.53-5.44-4.77,0-2.71,2.02-4.67,5.82-4.67,4.2,0,5.89,2.31,6.12,4.62h-3.1c-.21-1.16-.89-2.29-3.1-2.29-1.63,0-2.58.7-2.58,2s.77,1.79,3.5,2.43c4.73,1.13,5.7,2.92,5.7,5.16,0,2.87-2.16,4.93-6.38,4.93s-6.19-2.12-6.57-4.94h3.1Z"/>
      <path class="cls-7" d="M1051.88,366.84c0-2.88.04-6,.11-7.81h-.1c-.75,3.11-2.73,9.11-4.41,14.24h-2.65c-1.27-4.38-3.33-11.17-4.05-14.28h-.1c.14,1.91.2,5.38.2,8.19v6.1h-2.82v-16.39h4.58c1.48,4.56,3.2,10.34,3.71,12.66h.03c.4-1.96,2.5-8.2,4.06-12.66h4.42v16.39h-2.97v-6.43Z"/>
      <path class="cls-7" d="M1061.69,369.1l-1.44,4.17h-3.03l5.66-16.39h3.84l5.9,16.39h-3.24l-1.51-4.17h-6.18ZM1067.17,366.55c-1.3-3.75-2.08-5.99-2.46-7.38h-.02c-.4,1.54-1.27,4.18-2.31,7.38h4.8Z"/>
      <path class="cls-7" d="M1074.87,373.27v-16.39h3.87c2.15,3.73,6.39,10.89,7.2,12.67h.04c-.18-1.85-.17-4.6-.17-7.29v-5.39h2.81v16.39h-3.66c-1.9-3.32-6.48-11.34-7.37-13.21h-.04c.12,1.58.14,4.75.14,7.69v5.52h-2.83Z"/>
      <path class="cls-7" d="M1094.5,368.55c.4,1.76,1.63,2.59,3.69,2.59s3-.9,3-2.22c0-1.44-.8-2.14-3.76-2.84-4.25-1.01-5.44-2.53-5.44-4.77,0-2.71,2.02-4.67,5.82-4.67,4.2,0,5.89,2.31,6.12,4.62h-3.1c-.21-1.16-.89-2.29-3.1-2.29-1.63,0-2.58.7-2.58,2s.77,1.79,3.5,2.43c4.73,1.13,5.7,2.92,5.7,5.16,0,2.87-2.16,4.93-6.38,4.93s-6.19-2.12-6.57-4.94h3.1Z"/>
      <path class="cls-7" d="M1107.16,356.89h3.07v6.55h7.26v-6.55h3.07v16.39h-3.07v-7.29h-7.26v7.29h-3.07v-16.39Z"/>
      <path class="cls-7" d="M1127.77,356.89v16.39h-3.07v-16.39h3.07Z"/>
      <path class="cls-7" d="M1131.87,356.89h6.59c3.38,0,5.68,1.9,5.68,4.97,0,3.43-2.56,5.09-5.78,5.09h-3.41v6.33h-3.08v-16.39ZM1134.95,364.46h3.08c1.85,0,2.99-.79,2.99-2.54s-1.27-2.55-2.92-2.55h-3.16v5.1Z"/>
      <path class="cls-7" d="M968.89,387.86h-5.09v-2.55h13.24v2.55h-5.08v13.84h-3.08v-13.84Z"/>
      <path class="cls-7" d="M982.37,385.32v16.39h-3.07v-16.39h3.07Z"/>
      <path class="cls-7" d="M989.48,394.92v6.78h-3.01v-16.39h6.93c3.5,0,5.38,1.92,5.38,4.46,0,2.18-1.21,3.4-2.52,3.87.99.32,2.2,1.22,2.2,4.12v.77c0,1.11-.01,2.43.23,3.17h-2.93c-.29-.71-.32-1.95-.32-3.63v-.28c0-1.98-.52-2.88-3.27-2.88h-2.68ZM989.48,392.44h3.17c2.13,0,3-.81,3-2.34s-.96-2.3-2.86-2.3h-3.31v4.64Z"/>
      <path class="cls-7" d="M1007.82,385.32h6.28c4.72,0,7.83,3.14,7.83,8s-3.03,8.39-7.96,8.39h-6.15v-16.39ZM1010.89,399.19h2.92c3.39,0,4.93-2.48,4.93-5.85,0-2.87-1.43-5.51-4.91-5.51h-2.94v11.36Z"/>
      <path class="cls-7" d="M1024.13,391.14c.66-2.2,1.07-4.98,1.12-6.76h3.09c-.17,2.18-.9,4.98-1.81,6.76h-2.39Z"/>
      <path class="cls-7" d="M1031.78,397.53l-1.44,4.17h-3.03l5.66-16.39h3.84l5.9,16.39h-3.24l-1.51-4.17h-6.18ZM1037.26,394.98c-1.3-3.75-2.08-5.99-2.46-7.38h-.02c-.4,1.54-1.27,4.18-2.31,7.38h4.8Z"/>
      <path class="cls-7" d="M1044.96,385.32h6.28c4.72,0,7.83,3.14,7.83,8s-3.03,8.39-7.96,8.39h-6.15v-16.39ZM1048.04,399.19h2.92c3.39,0,4.93-2.48,4.93-5.85,0-2.87-1.43-5.51-4.91-5.51h-2.94v11.36Z"/>
      <path class="cls-7" d="M1065.29,394.92v6.78h-3.01v-16.39h6.93c3.5,0,5.38,1.92,5.38,4.46,0,2.18-1.21,3.4-2.52,3.87.99.32,2.2,1.22,2.2,4.12v.77c0,1.11-.01,2.43.23,3.17h-2.93c-.29-.71-.32-1.95-.32-3.63v-.28c0-1.98-.52-2.88-3.27-2.88h-2.68ZM1065.29,392.44h3.17c2.13,0,3-.81,3-2.34s-.96-2.3-2.86-2.3h-3.31v4.64Z"/>
      <path class="cls-7" d="M1088.85,394.43h-7.94v4.72h8.75l-.37,2.55h-11.37v-16.39h11.29v2.55h-8.3v4.02h7.94v2.55Z"/>
      <path class="cls-7" d="M1094.51,396.98c.4,1.76,1.63,2.59,3.69,2.59s3-.9,3-2.22c0-1.44-.8-2.14-3.76-2.84-4.25-1.01-5.44-2.53-5.44-4.77,0-2.71,2.02-4.67,5.82-4.67,4.2,0,5.89,2.31,6.12,4.62h-3.1c-.21-1.16-.89-2.29-3.1-2.29-1.63,0-2.58.7-2.58,2s.77,1.79,3.5,2.43c4.73,1.13,5.7,2.92,5.7,5.16,0,2.87-2.16,4.93-6.38,4.93s-6.19-2.12-6.57-4.94h3.1Z"/>
      <path class="cls-7" d="M1109.48,396.98c.4,1.76,1.63,2.59,3.69,2.59s3-.9,3-2.22c0-1.44-.8-2.14-3.76-2.84-4.25-1.01-5.44-2.53-5.44-4.77,0-2.71,2.02-4.67,5.82-4.67,4.2,0,5.89,2.31,6.12,4.62h-3.1c-.21-1.16-.89-2.29-3.1-2.29-1.63,0-2.58.7-2.58,2s.77,1.79,3.5,2.43c4.73,1.13,5.7,2.92,5.7,5.16,0,2.87-2.16,4.93-6.38,4.93s-6.19-2.12-6.57-4.94h3.1Z"/>
      <path class="cls-7" d="M1133.08,394.43h-7.94v4.72h8.75l-.37,2.55h-11.37v-16.39h11.29v2.55h-8.3v4.02h7.94v2.55Z"/>
    </g>
    <path class="cls-1" d="M1103.72,166.01c-15.93-5.18-27.15-6.64-32.05-9.7-.17-.1-.32-.21-.48-.32-1.13-.8-1.86-1.72-2.15-2.84-1.21-4.7.17-14.2.69-17.37.11-.66.3-1.29.58-1.89,1.72-3.66,8.27-18.85,7.08-35.2-1.74-24.09-36.52-30.34-51.06-13.87-1.75,1.98-3.12,4.27-4.05,6.74-.86,2.29-1.34,4.7-1.52,7.13-1.18,16.34,5.37,31.54,7.08,35.2.28.6.48,1.24.58,1.89.52,3.17,1.9,12.67.69,17.37-.28,1.1-.98,2-2.08,2.8-.15.11-.31.22-.47.32-4.86,3.09-16.11,4.53-32.13,9.74-20.51,6.68-29.63,20.68-27.51,58.28,2.12,37.61,11.07,114.77,11.07,114.77h142.15s8.95-77.17,11.07-114.77c2.12-37.61-7-51.61-27.51-58.28Z"/>
    <rect class="cls-4" x="1003.21" y="158.33" width="91.76" height="116.4" rx="36.37" ry="36.37"/>
    <rect class="cls-4" x="1005.25" y="185" width="87.68" height="63.04" rx="22.01" ry="22.01" transform="translate(1265.61 -832.56) rotate(90)"/>
    <rect class="cls-4" x="1040.05" y="202.84" width="18.08" height="24.63" rx="7.98" ry="7.98"/>
    <g>
      <path class="cls-7" d="M1048.77,218.27c-.04.49-.23,3-2.93,3s-3.08-2.43-3.08-5.04c0-3.15.92-5,3.19-5,2.58,0,2.78,2.21,2.82,2.99h-1.72c-.03-.33-.05-1.51-1.12-1.51s-1.36,1.34-1.36,3.56c0,1.83.18,3.56,1.31,3.56,1.04,0,1.12-1.17,1.16-1.55h1.74Z"/>
      <path class="cls-7" d="M1053.85,221.1l-1.44-3.58h-.01l-1.46,3.58h-1.84l2.34-4.98-2.26-4.75h1.98l1.36,3.23h.01s1.34-3.23,1.34-3.23h1.84l-2.23,4.58,2.36,5.15h-1.98Z"/>
    </g>
    <g>
      <path class="cls-7" d="M1070.6,245.99h-2.93c-.05.61-.17,1.66-.22,2.09.26-.27.7-.45,1.36-.45,1.56,0,2.32,1.22,2.32,2.93,0,1.95-.62,3.54-2.87,3.54-1.79,0-2.6-1.09-2.64-2.63h1.7c.04.62.23,1.26,1,1.26.89,0,1.06-.83,1.06-1.94s-.21-1.78-1.05-1.78c-.65,0-.86.45-1.02.97l-1.56-.22c.18-1.15.45-3.97.53-5.24h4.52l-.19,1.47Z"/>
      <path class="cls-7" d="M1074.3,259.23c0-1.24.56-2.67,2.58-2.67,1.7,0,2.46.95,2.46,2.43,0,1.16-.51,1.73-1.14,1.97v.03c.78.25,1.43.88,1.43,2.26,0,1.63-.63,3.01-2.81,3.01-1.79,0-2.6-1.04-2.65-2.6h1.65c.04.64.27,1.24,1.03,1.24.8,0,1.04-.6,1.04-1.61,0-1.07-.34-1.51-1.45-1.51h-.43v-1.41h.39c.89,0,1.22-.27,1.22-1.27,0-.7-.16-1.17-.86-1.17-.74,0-.87.72-.9,1.3h-1.57Z"/>
      <path class="cls-7" d="M1082.8,278.29v-.1c.01-1.61.7-2.74,2.13-4.35,1.09-1.24,1.35-1.59,1.35-2.54,0-.71-.15-1.2-.85-1.2s-.92.6-.95,1.54h-1.66c.01-1.49.65-2.91,2.66-2.91,1.83,0,2.56,1.07,2.56,2.64,0,1.12-.28,1.73-1.5,3.02-.88.94-1.55,1.78-1.76,2.44h3.5l-.23,1.47h-5.26Z"/>
    </g>
  </g>
</svg>